SplineFontDB: 3.0
FontName: TomsonTalks
FullName: Tomson Talks
FamilyName: Tomson Talks
Weight: Regular
Copyright: Frank Bruder
FontLog: "FONTLOG for Tomson Talks+AA0ACgAA-This file provides detailed information on the Tomson Talks font software. This information should be distributed along with the Tomson Talks fonts and any derivative works.+AA0ACgANAAoA-Basic Font Information+AA0ACgAA-Tomson Talks is a free comic lettering font created with online comics in the SVG format in mind. It is named for the character Police Inspector Benedict Tomson from the comic Unusual Murders. Visit the SVG Wiki <http://wiki.svg.org/> to learn more about SVG and SVG fonts. More information about Tomson Talks can be found at <http://purl.org/net/2008,frankbruder/font/TomsonTalks>+AA0ACgANAAoA-ChangeLog+AA0ACgAA-2010-05-12 (Frank Bruder) Tomson Talks Version 1.1+AA0ACgAA-- Fixed non-unique glyph names+AA0ACgAA-- Import to FontForge with some manual tweaking and automatic hinting+AA0ACgANAAoA-2008-09-06 (Frank Bruder) Tomson Talks Version 1.0+AA0ACgAA-- Initial release of font +ACIA-Tomson Talks+ACIADQAKAA0ACgAA-Acknowledgements+AA0ACgAA-N: Frank Bruder+AA0ACgAA-E: redurbf@yahoo.de+AA0ACgAA-W: http://frankbruder.ohost.de/+AA0ACgAA-D: Designer - original glyphs and kerning" 
Version: 1.1
DefaultBaseFilename: TomsonTalks
ItalicAngle: 0
UnderlinePosition: 0
UnderlineWidth: 0
Ascent: 800
Descent: 200
LayerCount: 2
Layer: 0 0 "Back"  1
Layer: 1 0 "Zeichenebene"  0
XUID: [1021 475 1989181467 16109792]
FSType: 8
OS2Version: 0
OS2_WeightWidthSlopeOnly: 0
OS2_UseTypoMetrics: 0
CreationTime: 1273629669
ModificationTime: 1273638036
PfmFamily: 17
TTFWeight: 400
TTFWidth: 5
LineGap: 90
VLineGap: 90
OS2TypoAscent: 0
OS2TypoAOffset: 1
OS2TypoDescent: 0
OS2TypoDOffset: 1
OS2TypoLinegap: 90
OS2WinAscent: 0
OS2WinAOffset: 1
OS2WinDescent: 0
OS2WinDOffset: 1
HheadAscent: 0
HheadAOffset: 1
HheadDescent: 0
HheadDOffset: 1
OS2Vendor: 'PfEd'

StartChar: .notdef
Encoding: 0 0 0
Width: 591
HStem: 40 30<70 521> 521 30<70 521>
VStem: 40 30<70 521> 521 30<70 521>
LayerCount: 2
Fore
SplineSet
40 40 m 0
 40 551 l 0
 551 551 l 0
 551 40 l 0
 40 40 l 0
70 70 m 0
 521 70 l 0
 521 521 l 0
 70 521 l 0
 70 70 l 0
EndSplineSet
Validated: 1
EndChar

StartChar: Auml
Encoding: 196 196 3
Width: 483
HStem: 252 51<178.765 291> 491 20G<234.5 247> 559 109<113.27 164.495>
VStem: 31 55<48.8311 71> 95 87<575.215 650.328> 304 83<572.069 656.908> 304 57<545.051 616.318>
LayerCount: 2
Fore
SplineSet
34 96 m 0xf8
 91 232 158 435 203 489 c 0
 213 502 229 511 240 511 c 0
 241 511 241 511 242 511 c 0
 252 510 267 497 275 482 c 0
 332 374 390 211 437 130 c 0
 439 126 441 121 441 116 c 0
 441 109 439 102 435 96 c 0
 428 85 418 79 408 79 c 0
 404 79 400 80 397 82 c 0
 394 84 390 88 389 91 c 0
 310 252 l 0
 264 251 187 249 157 233 c 0
 86 71 l 0
 80 57 67 47 55 47 c 0
 53 47 50 47 48 48 c 0
 37 52 31 63 31 77 c 0
 31 82 32 88 34 93 c 0
 34 94 35 95 35 96 c 0
 34 96 l 0xf8
178 287 m 0
 194 293 231 300 291 303 c 0
 239 430 l 0
 214 377 194 329 178 287 c 0
99 618 m 0
 104 640 125 668 154 668 c 0
 155 668 157 668 158 668 c 0
 176 666 182 656 182 642 c 0
 182 632 179 621 176 609 c 0
 169 580 157 562 123 559 c 0
 121 559 119 559 117 559 c 0
 100 559 95 568 95 583 c 0
 95 592 97 604 99 618 c 0
314 636 m 0
 318 651 331 669 352 669 c 0
 355 669 358 669 362 668 c 0
 381 663 387 652 387 638 c 0xfc
 387 631 385 624 383 617 c 0
 376 595 370 580 361 564 c 0xfa
 353 550 340 543 328 543 c 0
 326 543 324 544 322 544 c 0
 309 547 304 568 304 582 c 0xfc
 304 593 308 617 314 636 c 0
EndSplineSet
Validated: 1
EndChar

StartChar: bolleA
Encoding: 197 197 7
Width: 475
Flags: H
VStem: 376 57<65.0448 114.786>
LayerCount: 2
Fore
SplineSet
33 75 m 0
 200 513 l 0
 206 530 222 543 235 543 c 0
 236 543 l 0
 247 543 260 532 266 520 c 0
 333 381 410 127 428 102 c 0
 431 98 433 92 433 87 c 0
 433 73 417 64 404 64 c 0
 402 64 401 65 399 65 c 0
 391 66 380 71 376 77 c 0
 359 99 327 179 311 234 c 0
 281 231 186 228 147 213 c 0
 86 77 l 0
 84 72 78 65 73 61 c 0
 65 55 56 52 48 52 c 0
 42 52 37 54 34 58 c 0
 32 60 31 64 31 68 c 0
 31 70 31 73 32 75 c 0
 33 75 l 0
169 266 m 0
 220 269 289 272 301 288 c 0
 281 347 259 397 234 440 c 0
 212 378 190 320 169 266 c 0
114 653 m 0
 114 656 113 659 113 662 c 0
 113 715 170 761 219 762 c 0
 220 762 220 762 221 762 c 0
 272 762 318 717 323 666 c 0
 323 663 323 661 323 658 c 0
 323 610 280 572 229 566 c 0
 225 566 221 565 217 565 c 0
 167 565 120 600 114 653 c 0
215 612 m 0
 216 612 l 0
 237 612 264 635 266 661 c 0
 266 662 266 663 266 664 c 0
 266 689 240 711 220 711 c 0
 219 711 218 711 217 711 c 0
 197 708 177 685 177 658 c 0
 177 632 191 613 215 612 c 0
EndSplineSet
Validated: 1
EndChar

StartChar: A
Encoding: 65 65 9
Width: 469
Flags: H
LayerCount: 2
Fore
SplineSet
40 126 m 0
 111 281 156 396 176 471 c 0
 177 475 180 482 183 485 c 0
 192 497 205 502 220 502 c 0
 232 502 245 498 256 490 c 0
 263 485 271 475 274 468 c 0
 323 367 372 251 423 120 c 0
 425 113 427 105 427 98 c 0
 427 82 420 69 409 64 c 0
 406 63 404 62 401 62 c 0
 386 62 369 75 360 95 c 0
 312 207 l 0
 295 215 275 218 254 218 c 0
 217 218 176 208 137 191 c 0
 94 104 l 0
 94 103 93 103 93 102 c 0
 82 80 64 65 50 65 c 0
 47 65 45 65 43 66 c 0
 35 70 31 81 31 93 c 0
 31 103 34 114 39 126 c 0
 40 126 l 0
156 252 m 0
 159 252 162 252 165 252 c 0
 193 252 237 262 285 283 c 0
 266 324 246 365 223 406 c 0
 201 353 179 301 156 252 c 0
EndSplineSet
Validated: 1
EndChar

StartChar: AElig
Encoding: 198 198 11
Width: 645
Flags: H
HStem: 73 59<380 570.75> 200 52<191 312.439> 258 55<377 535.514> 445 52<373 573.985>
VStem: 316 61<133.938 205 257.237 258 313 414> 333 31<63.6439 72.9952>
LayerCount: 2
Fore
SplineSet
38 123 m 0xf8
 149 280 243 403 318 490 c 0
 321 493 326 498 330 500 c 0
 338 505 347 507 354 507 c 0
 361 507 367 505 370 500 c 0
 371 499 372 496 372 494 c 0
 427 495 482 496 537 497 c 0
 544 497 557 491 565 484 c 0
 576 475 583 463 583 455 c 0
 583 452 582 450 581 448 c 0
 579 446 575 445 572 445 c 0
 509 445 442 443 373 440 c 0
 372 394 372 352 371 313 c 0
 408 313 464 317 539 325 c 0
 539 325 540 325 541 325 c 0
 549 325 558 315 562 301 c 0
 564 296 564 291 564 286 c 0
 564 277 562 269 556 267 c 0
 555 267 554 267 553 267 c 0
 478 262 419 259 377 258 c 0xf8
 377 215 378 173 380 132 c 0
 415 132 479 139 574 153 c 0
 576 153 581 154 583 153 c 0
 595 150 603 137 603 122 c 0
 603 119 603 115 602 112 c 0
 599 97 586 85 574 84 c 0
 505 78 435 74 364 73 c 0
 364 73 l 0
 363 67 357 63 350 63 c 0
 349 63 347 64 346 64 c 0
 340 65 335 69 333 73 c 0xf4
 326 108 320 152 316 205 c 0
 313 205 310 205 307 205 c 0
 270 205 208 200 156 200 c 0
 74 96 l 0
 73 95 l 0
 67 87 58 83 50 83 c 0
 46 83 41 84 38 87 c 0
 33 91 31 97 31 103 c 0
 31 109 33 117 38 123 c 0xf8
191 252 m 0
 199 251 209 250 218 250 c 0
 251 250 288 256 314 260 c 0
 314 314 314 365 315 414 c 0
 282 377 241 323 191 252 c 0
EndSplineSet
Validated: 1
EndChar

StartChar: B
Encoding: 66 66 13
Width: 462
Flags: H
HStem: 67 66<102.443 292.21> 300 213<180 255>
VStem: 30 72<135.949 269.38 333.654 438.766> 36 71<163.376 272.196 332 441.54>
LayerCount: 2
Fore
SplineSet
30 138 m 0xe0
 32 247 34 349 36 444 c 0xd0
 36 466 52 481 87 491 c 0
 122 501 179 513 217 513 c 0
 255 513 308 500 317 455 c 0
 318 451 318 446 318 442 c 0
 318 401 281 362 247 341 c 0
 332 331 390 304 415 247 c 0
 418 240 420 232 420 223 c 0
 420 161 343 67 208 67 c 0
 54 67 30 117 30 138 c 0xe0
102 162 m 0xe0
 102 145 104 132 159 132 c 0
 166 132 174 133 183 133 c 0
 262 137 343 160 351 206 c 0
 351 209 352 212 352 214 c 0
 352 257 287 297 180 300 c 0
 143 276 118 271 105 255 c 0
 103 222 102 191 102 162 c 0xe0
109 332 m 0
 112 331 115 331 119 331 c 0
 137 331 158 340 173 349 c 0
 191 360 242 396 246 431 c 0
 246 433 246 435 246 437 c 0
 246 461 229 471 208 471 c 0
 202 471 196 471 190 469 c 0
 161 461 125 440 107 429 c 0xd0
 108 400 109 367 109 332 c 0
EndSplineSet
Validated: 1
EndChar

StartChar: C
Encoding: 67 67 15
Width: 430
Flags: H
HStem: 107 50<295.812 387.05> 409 48<161.011 246.304 252.337 301.345>
LayerCount: 2
Fore
SplineSet
366 107 m 0
 332 91 290 81 245 81 c 0
 203 81 159 90 120 111 c 0
 63 142 31 206 31 271 c 0
 31 297 36 324 47 348 c 0
 77 417 144 464 221 464 c 0
 238 464 256 462 274 457 c 0
 279 456 287 452 291 448 c 0
 300 440 305 430 305 420 c 0
 305 414 303 407 299 402 c 0
 294 396 286 393 278 393 c 0
 269 393 260 396 252 402 c 0
 250 404 248 407 246 409 c 0
 240 410 234 411 228 411 c 0
 190 411 149 386 126 351 c 0
 111 329 100 295 100 261 c 0
 100 232 108 202 130 179 c 0
 159 148 203 131 248 131 c 0
 275 131 302 137 326 150 c 0
 331 153 339 156 345 157 c 0
 348 157 351 157 354 157 c 0
 372 157 388 148 388 134 c 0
 388 124 379 112 366 107 c 0
EndSplineSet
Validated: 1
EndChar

StartChar: D
Encoding: 68 68 17
Width: 477
Flags: H
VStem: 33 70<190.029 436.395>
LayerCount: 2
Fore
SplineSet
52 60 m 0
 44 116 34 361 33 424 c 0
 28 429 24 438 24 448 c 0
 24 457 28 465 38 469 c 0
 59 477 155 507 236 507 c 0
 239 507 241 507 244 507 c 0
 327 505 411 446 428 382 c 0
 432 367 434 351 434 336 c 0
 434 288 416 241 393 211 c 0
 363 171 229 93 161 62 c 0
 134 43 117 29 98 24 c 0
 95 23 93 23 90 23 c 0
 73 23 56 36 52 60 c 0
116 94 m 0
 243 165 322 205 342 250 c 0
 355 280 362 313 362 342 c 0
 362 356 361 370 357 381 c 0
 346 415 310 453 257 461 c 0
 248 462 238 463 228 463 c 0
 182 463 132 448 103 421 c 0
 104 313 109 204 116 94 c 0
EndSplineSet
Validated: 1
EndChar

StartChar: E
Encoding: 69 69 19
Width: 434
Flags: H
HStem: 270 50<119.207 272.285>
VStem: 43 63<300 429.478>
LayerCount: 2
Fore
SplineSet
32 80 m 0
 39 139 43 284 43 453 c 0
 43 467 58 472 107 478 c 0
 211 491 342 496 368 496 c 0
 375 496 382 486 383 474 c 0
 384 461 379 451 371 450 c 0
 371 450 l 0
 246 443 132 433 112 426 c 0
 109 387 107 345 106 300 c 0
 135 313 185 320 236 320 c 0
 242 320 247 320 253 320 c 0
 264 320 273 309 273 295 c 0
 273 281 263 270 252 270 c 0
 252 270 l 0
 248 270 243 270 239 270 c 0
 187 270 146 264 104 241 c 0
 101 200 98 155 95 108 c 0
 118 119 183 132 232 138 c 0
 259 141 291 144 319 144 c 0
 341 144 361 142 373 138 c 0
 377 136 383 131 386 127 c 0
 390 122 391 116 391 111 c 0
 391 104 388 98 383 94 c 0
 381 93 377 91 374 91 c 0
 277 91 184 82 139 70 c 0
 95 58 83 42 58 42 c 0
 57 42 57 42 56 42 c 0
 37 43 26 50 26 62 c 0
 26 67 28 73 32 80 c 0
EndSplineSet
Validated: 5
EndChar

StartChar: F_F
Encoding: 65540 -1 21
Width: 760
Flags: H
HStem: 246 54<108.871 300.055> 275 48<520.053 666.431> 467 52<697.073 716.74>
VStem: 32 73<54.624 232.425 282 426.767> 415 61<50.7602 243.227 286 434.621>
LayerCount: 2
Fore
SplineSet
32 75 m 0xb8
 36 151 37 221 37 283 c 0
 37 325 37 364 35 399 c 0
 34 424 17 438 17 447 c 0
 17 456 20 469 52 470 c 0
 84 471 146 483 271 495 c 0
 272 495 273 495 275 495 c 0
 283 495 294 494 302 492 c 0
 325 486 342 473 342 463 c 0
 342 456 331 452 323 451 c 0
 227 442 154 433 104 423 c 0
 104 378 104 331 105 282 c 0
 142 290 203 296 286 300 c 0
 287 300 287 300 288 300 c 0
 295 300 300 289 300 274 c 0
 300 259 295 246 288 246 c 0
 287 246 287 247 286 247 c 0
 280 247 273 247 267 247 c 0
 185 247 130 239 103 222 c 1
 103 111 105 97 105 83 c 0
 105 70 93 56 76 51 c 0
 71 49 66 49 61 49 c 0
 47 49 35 55 32 66 c 0
 31 68 31 72 31 75 c 0
 32 75 l 0xb8
415 59 m 0
 414 145 413 212 413 261 c 0
 413 310 414 373 416 452 c 0
 416 465 442 479 481 488 c 0
 520 497 613 502 697 519 c 0
 698 519 698 519 699 519 c 0
 700 519 701 519 702 519 c 0
 711 517 718 507 718 496 c 0
 718 494 718 491 717 489 c 0
 715 478 706 468 697 467 c 0
 652 464 610 460 571 454 c 0
 532 448 497 440 476 421 c 0
 476 407 475 394 475 379 c 0
 475 350 476 319 478 286 c 0
 509 303 572 319 636 323 c 0
 641 323 650 321 655 318 c 0
 664 312 669 303 669 294 c 0
 669 290 669 287 667 284 c 0
 664 279 656 275 650 275 c 0x78
 606 275 523 267 479 231 c 0
 479 223 479 214 479 204 c 0
 479 166 478 119 476 62 c 0
 474 56 460 51 446 50 c 0
 445 50 444 50 443 50 c 0
 430 50 417 54 415 59 c 0
EndSplineSet
Validated: 1
Ligature2: "'liga' Standard Ligatures in Latin lookup 0 subtable" F F
EndChar

StartChar: F
Encoding: 70 70 25
Width: 484
Flags: H
HStem: 450 54<176.5 441.566>
VStem: 36 72<61.0984 248.301 314 441.357>
LayerCount: 2
Fore
SplineSet
41 96 m 0
 36 445 l 0
 32 454 31 463 31 471 c 0
 31 481 33 489 38 493 c 0
 41 495 46 497 50 497 c 0
 183 500 298 503 395 504 c 0
 395 504 l 0
 397 504 l 0
 422 504 443 493 443 478 c 0
 443 463 422 450 396 450 c 0
 395 450 l 0
 278 449 183 446 109 440 c 0
 109 397 109 355 108 314 c 0
 165 319 221 322 274 325 c 0
 275 325 275 325 276 325 c 0
 320 325 363 312 363 295 c 0
 363 279 327 263 281 258 c 0
 225 255 168 251 111 247 c 0
 111 202 113 156 117 109 c 0
 117 107 117 104 117 102 c 0
 117 74 100 52 79 52 c 0
 78 52 l 0
 60 52 43 72 41 96 c 0
EndSplineSet
Validated: 5
EndChar

StartChar: G
Encoding: 71 71 27
Width: 499
Flags: H
HStem: 61 65<155.555 323.179> 292 47<291.271 368.32>
VStem: 367 45<415.336 453.093>
LayerCount: 2
Fore
SplineSet
337 339 m 0
 424 323 455 261 455 213 c 0
 455 211 455 208 455 206 c 0
 452 158 384 61 243 61 c 0
 239 61 235 61 231 61 c 0
 104 66 30 131 30 229 c 0
 30 246 33 263 37 282 c 0
 67 410 163 476 241 498 c 0
 265 505 287 508 308 508 c 0
 354 508 390 493 406 472 c 0
 410 466 413 454 412 445 c 0
 410 428 399 415 387 415 c 0
 386 415 386 415 385 415 c 0
 378 416 370 424 367 434 c 0
 363 449 347 456 324 456 c 0
 296 456 258 446 227 428 c 0
 170 396 119 328 96 253 c 0
 94 245 92 237 92 230 c 0
 92 168 174 126 249 126 c 0
 250 126 250 126 251 126 c 0
 334 127 392 200 392 236 c 0
 392 265 362 281 310 292 c 1
 301 295 291 305 291 313 c 0
 291 326 307 338 328 339 c 0
 330 339 335 339 337 339 c 0
EndSplineSet
Validated: 1
EndChar

StartChar: H
Encoding: 72 72 29
Width: 416
Flags: H
HStem: 247 64<113 307>
VStem: 54 64<57.1681 246.283> 307 65<97.4927 245 311 488.442>
LayerCount: 2
Fore
SplineSet
54 87 m 0
 51 236 43 351 31 432 c 0
 31 434 31 437 31 440 c 0
 31 465 44 485 61 486 c 0
 62 486 l 0
 75 486 89 471 93 452 c 0
 100 409 107 362 113 311 c 0
 142 312 173 312 206 312 c 0
 239 312 274 312 310 311 c 0
 310 326 310 340 310 354 c 0
 310 439 308 449 308 460 c 0
 308 473 320 486 334 490 c 0
 337 491 339 491 342 491 c 0
 356 491 370 482 373 469 c 0
 373 467 374 465 374 463 c 0
 373 339 373 226 372 125 c 0
 371 117 366 105 360 97 c 0
 350 84 336 76 325 76 c 0
 321 76 317 77 314 79 c 0
 311 82 308 88 307 93 c 0
 307 120 306 147 306 172 c 0
 306 197 307 222 307 245 c 0
 268 247 228 248 187 248 c 0
 163 248 138 248 113 247 c 0
 114 198 116 151 118 105 c 0
 118 101 117 93 116 89 c 0
 111 67 96 52 81 52 c 0
 79 52 78 52 76 52 c 0
 64 55 54 71 54 88 c 0
 54 87 l 0
EndSplineSet
Validated: 1
EndChar

StartChar: I
Encoding: 73 73 31
Width: 145
HStem: 61 21G<54 62.5> 465 20G<60 80>
VStem: 31 63<79.0396 461.3> 40 62<68.5189 244.908 251.752 257.908 264.377 483.733>
LayerCount: 2
Fore
SplineSet
37 75 m 0xe0
 33 118 31 182 31 248 c 0xe0
 31 328 34 411 40 460 c 0
 41 471 53 483 67 485 c 0
 69 485 71 485 73 485 c 0
 87 485 100 477 102 465 c 0
 102 464 102 462 102 460 c 0xd0
 97 408 94 333 94 261 c 0
 94 195 97 131 103 89 c 0
 101 86 95 80 92 77 c 0
 80 67 68 61 57 61 c 0
 51 61 45 63 41 67 c 0
 39 69 38 72 37 75 c 0xe0
EndSplineSet
Validated: 1
EndChar

StartChar: J
Encoding: 74 74 33
Width: 484
Flags: H
VStem: 31 90<150.245 204.601> 369 72<155.515 514.107>
LayerCount: 2
Fore
SplineSet
121 182 m 0
 129 160 158 116 243 116 c 0
 250 116 257 116 265 117 c 0
 367 125 367 197 369 238 c 0
 370 259 372 316 372 368 c 0
 372 416 370 461 366 474 c 0
 365 478 364 482 364 486 c 0
 364 497 368 508 375 514 c 0
 381 519 389 521 397 521 c 0
 409 521 421 515 430 504 c 0
 436 497 441 485 441 476 c 0
 441 463 441 448 441 432 c 0
 441 389 441 338 441 300 c 0
 441 286 441 274 441 264 c 0
 440 218 433 82 296 47 c 0
 274 41 253 39 233 39 c 0
 131 39 62 104 43 126 c 0
 36 134 31 150 31 162 c 0
 31 191 52 213 78 213 c 0
 79 213 79 213 80 213 c 0
 96 212 115 199 121 182 c 0
EndSplineSet
Validated: 1
EndChar

StartChar: K
Encoding: 75 75 35
Width: 513
Flags: H
VStem: 52 67<345.311 482.485>
LayerCount: 2
Fore
SplineSet
54 388 m 0
 54 408 53 426 52 441 c 0
 52 444 52 450 52 453 c 0
 54 474 67 490 82 490 c 0
 83 490 83 490 84 490 c 0
 95 489 106 475 108 460 c 0
 114 431 118 393 119 344 c 0
 353 482 l 0
 357 485 364 489 368 491 c 0
 380 497 392 499 403 499 c 0
 418 499 430 493 435 483 c 0
 436 480 437 477 437 474 c 0
 437 459 424 441 403 430 c 0
 190 298 l 0
 439 164 l 0
 442 163 446 160 448 158 c 0
 462 148 471 134 471 123 c 0
 471 119 471 116 469 113 c 0
 466 109 459 107 452 107 c 0
 445 107 437 109 429 113 c 0
 113 265 l 0
 106 208 100 149 95 86 c 0
 96 76 84 64 68 60 c 0
 63 59 59 58 55 58 c 0
 43 58 33 63 31 71 c 0
 31 72 31 73 31 74 c 0
 31 105 54 262 54 388 c 0
EndSplineSet
Validated: 33
EndChar

StartChar: L_L
Encoding: 65543 -1 37
Width: 756
Flags: H
VStem: 30 65<143 372.238> 33 54<268.958 486.832> 431 65<275.734 527.392>
LayerCount: 2
Fore
SplineSet
33 384 m 0
 33 409 33 435 33 461 c 0
 33 468 38 480 43 487 c 0
 52 498 63 505 72 505 c 0
 75 505 79 505 81 503 c 0
 84 500 87 494 87 488 c 0x60
 90 361 93 246 95 143 c 0
 159 154 227 167 298 181 c 0
 305 182 317 178 325 171 c 0
 334 163 339 154 339 146 c 0
 339 143 339 140 337 138 c 0
 335 136 332 134 329 134 c 0
 241 117 155 97 70 74 c 0
 65 73 60 72 55 72 c 0
 47 72 39 74 36 77 c 0
 33 80 30 89 30 96 c 0
 30 125 33 211 33 384 c 0
412 120 m 0
 425 275 431 402 431 501 c 0
 431 513 442 525 457 529 c 0
 461 530 464 530 468 530 c 0
 481 530 492 524 495 513 c 0
 495 511 496 509 496 507 c 0
 489 368 481 244 473 137 c 0
 528 152 584 172 641 197 c 0
 647 200 656 202 663 203 c 0
 666 203 670 204 673 204 c 0
 695 204 714 194 714 179 c 0
 714 169 703 156 688 150 c 0
 609 119 529 96 448 82 c 0
 446 82 444 81 441 81 c 0
 433 81 425 84 421 87 c 0
 416 92 412 102 412 114 c 0
 412 116 412 118 412 120 c 0
EndSplineSet
Validated: 1
Ligature2: "'liga' Standard Ligatures in Latin lookup 0 subtable" L L
EndChar

StartChar: L
Encoding: 76 76 41
Width: 467
Flags: H
HStem: 83 45<197.938 424.446>
VStem: 79 68<284.391 487.538>
LayerCount: 2
Fore
SplineSet
34 103 m 0
 64 239 79 350 79 437 c 0
 79 441 79 444 79 448 c 0
 79 448 l 0
 77 469 90 489 109 491 c 0
 110 491 111 491 112 491 c 0
 129 491 145 475 147 455 c 0
 147 451 147 446 146 442 c 0
 138 368 122 259 99 116 c 0
 195 126 273 132 332 132 c 0
 360 132 384 130 404 128 c 1
 416 125 425 115 425 106 c 0
 425 94 413 84 398 83 c 0
 394 83 390 83 385 83 c 0
 316 83 219 74 95 55 c 0
 90 54 85 54 80 54 c 0
 52 54 28 66 28 85 c 0
 28 91 30 98 34 103 c 0
EndSplineSet
Validated: 37
EndChar

StartChar: M_M
Encoding: 65547 -1 43
Width: 935
Flags: H
VStem: 31 64<124 350.434> 354 73<86.2652 387> 499 74<82.6931 120.867> 511 73<176.563 388> 830 62<266.783 400>
LayerCount: 2
Fore
SplineSet
31 124 m 0xc8
 32 185 39 285 51 425 c 0
 53 451 66 476 80 480 c 0
 82 480 83 481 85 481 c 0
 96 481 111 474 121 464 c 0
 167 421 206 386 237 361 c 0
 279 395 320 431 359 470 c 0
 370 481 385 485 401 485 c 0
 409 485 418 484 426 482 c 0
 444 478 449 465 449 450 c 0
 449 447 448 443 448 440 c 0
 446 422 438 405 429 391 c 0
 428 298 428 197 427 88 c 0
 427 86 l 0
 427 78 411 71 391 70 c 0
 389 70 388 70 386 70 c 0
 368 70 353 75 353 82 c 0
 353 83 354 84 354 85 c 0
 355 191 356 292 356 387 c 0
 257 309 l 2
 248 302 234 297 225 297 c 0
 213 297 196 305 185 315 c 0
 158 341 131 365 105 387 c 0
 100 356 96 268 95 123 c 0
 95 121 94 117 93 115 c 0
 88 97 74 84 59 84 c 0
 57 84 53 84 51 85 c 0
 37 89 28 106 30 124 c 0
 31 124 l 0xc8
511 413 m 0
 511 438 523 463 537 469 c 0
 540 470 543 471 547 471 c 0
 557 471 570 467 580 460 c 0
 635 421 677 391 708 372 c 0
 823 486 l 0
 827 490 836 497 842 500 c 0
 852 505 862 507 871 507 c 0
 880 507 888 505 891 499 c 0
 892 497 892 494 892 492 c 0
 892 492 l 0
 892 381 888 265 881 144 c 0
 881 136 874 123 867 116 c 0
 858 107 847 102 838 102 c 0
 832 102 827 104 823 108 c 0
 820 111 817 118 817 124 c 0
 824 231 828 323 830 400 c 0
 789 370 756 343 730 318 c 0
 719 308 703 300 693 300 c 0
 692 300 691 300 690 300 c 0
 685 301 676 306 671 311 c 0
 634 349 605 375 584 388 c 0xd8
 581 307 577 218 570 121 c 0
 571 118 573 113 573 110 c 0
 573 110 l 0
 573 94 556 80 536 80 c 0
 535 80 l 0
 515 80 499 93 499 109 c 0xe8
 499 109 l 2
 499 115 511 197 511 413 c 0
EndSplineSet
Validated: 37
Ligature2: "'liga' Standard Ligatures in Latin lookup 0 subtable" M M
EndChar

StartChar: M
Encoding: 77 77 47
Width: 488
Flags: H
VStem: 32 55<93.546 99 100 320.258>
LayerCount: 2
Fore
SplineSet
31 100 m 0
 37 195 40 307 41 436 c 0
 41 442 43 451 46 457 c 0
 53 472 64 481 74 481 c 0
 76 481 78 481 80 480 c 0
 82 479 84 477 85 476 c 0
 115 443 159 404 218 357 c 0
 386 497 l 0
 398 507 412 513 422 513 c 0
 425 513 428 512 430 511 c 0
 439 506 446 489 446 469 c 0
 446 467 446 464 446 462 c 0
 439 363 433 244 427 105 c 0
 428 97 423 85 418 78 c 0
 410 67 399 61 388 61 c 0
 382 61 377 63 372 66 c 0
 365 71 361 84 362 94 c 0
 372 219 380 330 385 427 c 0
 256 315 l 0
 244 305 227 299 213 299 c 0
 211 299 208 300 206 300 c 0
 201 301 192 305 187 308 c 0
 105 369 l 0
 99 297 93 211 87 112 c 0
 87 107 84 98 81 93 c 0
 74 80 63 73 52 73 c 0
 49 73 46 74 43 76 c 0
 37 80 32 90 32 99 c 0
 31 100 l 0
EndSplineSet
Validated: 1
EndChar

StartChar: N_N
Encoding: 65551 -1 49
Width: 1027
Flags: H
VStem: 31 60<88.5313 321.694> 400 51<394.785 502.686>
LayerCount: 2
Fore
SplineSet
31 99 m 0
 31 212 38 325 53 438 c 0
 54 446 57 458 62 465 c 0
 72 481 89 490 103 490 c 0
 109 490 115 488 120 485 c 0
 128 480 134 468 134 457 c 0
 188 398 260 330 351 253 c 0
 364 338 381 411 400 472 c 0
 406 492 420 506 433 506 c 0
 434 506 436 506 437 506 c 0
 448 503 454 489 454 473 c 0
 454 467 454 461 452 455 c 0
 452 454 451 453 451 452 c 0
 430 384 417 326 413 279 c 0
 411 253 410 232 410 214 c 0
 410 199 410 187 412 178 c 0
 413 174 413 167 413 163 c 0
 413 160 414 159 414 156 c 0
 414 119 399 89 380 88 c 0
 380 87 l 0
 364 87 346 113 341 145 c 0
 293 204 234 264 163 327 c 0
 152 336 136 344 115 351 c 0
 101 315 93 235 91 112 c 0
 90 104 81 93 72 88 c 0
 66 85 59 83 53 83 c 0
 44 83 37 87 33 94 c 0
 32 95 31 97 31 99 c 0
490 158 m 0
 508 207 526 299 544 433 c 0
 548 459 563 482 578 485 c 0
 579 485 580 485 581 485 c 0
 592 485 607 476 617 463 c 0
 676 384 751 296 842 197 c 0
 858 296 897 425 921 484 c 0
 922 485 922 488 923 489 c 0
 932 505 948 515 961 515 c 0
 965 515 969 514 972 512 c 0
 980 507 985 497 985 485 c 0
 985 478 983 470 980 463 c 0
 943 390 918 283 898 162 c 0
 894 133 873 107 853 104 c 0
 852 104 851 104 849 104 c 0
 832 104 810 118 798 137 c 0
 593 376 l 0
 580 300 568 223 557 145 c 0
 557 138 553 128 549 123 c 0
 542 114 530 109 520 109 c 0
 513 109 506 111 500 116 c 0
 492 122 488 133 488 143 c 0
 488 148 489 153 491 158 c 0
 490 158 l 0
EndSplineSet
Validated: 1
Ligature2: "'liga' Standard Ligatures in Latin lookup 0 subtable" N N
EndChar

StartChar: N
Encoding: 78 78 53
Width: 530
Flags: H
VStem: 431 55<440.7 499.94>
LayerCount: 2
Fore
SplineSet
31 134 m 0
 46 268 62 376 78 459 c 0
 83 483 100 494 114 494 c 0
 115 494 115 494 116 494 c 0
 130 493 147 481 172 454 c 0
 197 427 228 383 261 328 c 0
 294 273 332 220 354 199 c 0
 382 275 408 367 431 474 c 0
 432 478 434 484 436 487 c 0
 442 498 453 504 463 504 c 0
 467 504 471 502 475 500 c 0
 482 496 487 486 487 476 c 0
 487 473 487 471 486 468 c 0
 406 156 l 0
 401 137 383 105 369 100 c 0
 367 99 364 99 362 99 c 0
 348 99 327 111 308 137 c 0
 286 167 256 207 219 272 c 0
 182 337 144 393 126 404 c 0
 113 353 101 269 89 151 c 0
 89 143 82 130 72 123 c 0
 64 117 55 114 48 114 c 0
 42 114 36 116 33 120 c 0
 31 122 30 126 30 130 c 0
 30 132 31 133 31 135 c 0
 31 134 l 0
EndSplineSet
Validated: 1
EndChar

StartChar: Ouml
Encoding: 214 214 57
Width: 490
Flags: H
HStem: 404 67<198.194 326.901> 573 112<134.724 228.971>
VStem: 111 140<595.917 661.481> 331 114<585.037 631.423>
LayerCount: 2
Fore
SplineSet
36 266 m 0
 61 365 148 468 248 471 c 0
 250 471 251 471 253 471 c 0
 348 471 448 396 448 309 c 0
 448 306 448 303 448 300 c 0
 441 208 343 97 213 83 c 0
 205 82 197 82 189 82 c 0
 91 82 31 149 31 227 c 0
 31 240 33 253 36 266 c 0
107 261 m 0
 103 250 101 238 101 227 c 0
 101 178 138 134 191 134 c 0
 195 134 200 134 205 135 c 0
 277 145 382 237 388 297 c 0
 388 299 388 301 388 303 c 0
 388 360 309 403 255 404 c 0
 254 404 l 0
 198 404 132 326 107 261 c 0
111 613 m 0
 113 646 134 679 187 685 c 0
 194 686 201 686 207 686 c 0
 243 686 251 671 251 645 c 0
 251 615 229 575 171 573 c 0
 166 573 161 573 157 573 c 0
 118 573 111 581 111 603 c 0
 111 606 111 609 111 613 c 0
331 586 m 0
 337 616 379 675 409 681 c 0
 413 682 417 682 421 682 c 0
 438 682 447 673 447 655 c 0
 447 650 446 645 445 639 c 0
 438 605 413 555 383 548 c 0
 378 547 374 546 369 546 c 0
 348 546 330 558 330 578 c 0
 330 581 330 583 331 586 c 0
EndSplineSet
Validated: 1
EndChar

StartChar: Oslash
Encoding: 216 216 61
Width: 501
Flags: H
LayerCount: 2
Fore
SplineSet
79 118 m 0
 46 146 31 196 31 250 c 0
 31 297 42 347 63 389 c 0
 94 451 164 495 240 495 c 0
 275 495 311 486 344 465 c 0
 416 563 l 0
 421 572 432 577 441 577 c 0
 443 577 446 577 448 576 c 0
 459 572 466 561 466 549 c 0
 466 546 465 542 464 539 c 0
 463 535 459 529 456 526 c 0
 434 499 411 469 387 436 c 0
 423 406 458 343 458 277 c 0
 458 240 447 201 417 168 c 0
 359 104 262 81 192 81 c 0
 163 81 138 85 123 91 c 0
 45 -4 l 0
 38 -14 27 -19 18 -19 c 0
 15 -19 13 -19 10 -17 c 0
 4 -13 1 -6 1 2 c 0
 1 9 3 17 8 25 c 0
 9 26 10 28 11 29 c 0
 28 53 51 83 79 118 c 0
118 165 m 0
 311 422 l 0
 287 438 263 446 239 446 c 0
 198 446 160 422 132 376 c 0
 107 335 95 288 95 246 c 0
 95 214 102 185 118 165 c 0
164 135 m 0
 176 131 190 129 205 129 c 0
 257 129 324 152 366 203 c 0
 389 231 398 261 398 291 c 0
 398 333 379 372 352 394 c 0
 164 135 l 0
EndSplineSet
Validated: 1
EndChar

StartChar: O
Encoding: 79 79 63
Width: 572
HStem: 79 62<130.39 337.04> 431 60<230.513 404.934>
VStem: 31 65<175.975 303.084> 461 68<238.129 371.584>
LayerCount: 2
Fore
SplineSet
39 180 m 0
 34 196 31 214 31 232 c 0
 31 331 108 447 250 483 c 0
 271 488 291 491 311 491 c 0
 439 491 529 384 529 295 c 0
 529 290 529 284 528 279 c 0
 515 174 426 129 327 96 c 0
 295 85 257 79 220 79 c 0
 140 79 61 107 39 180 c 0
100 206 m 0
 117 161 150 141 208 141 c 0
 233 141 264 145 299 152 c 0
 410 175 461 248 461 306 c 0
 461 309 461 311 461 314 c 0
 457 366 423 431 329 431 c 0
 316 431 301 430 285 427 c 0
 173 407 96 300 96 231 c 0
 96 222 97 214 100 206 c 0
EndSplineSet
Validated: 1
EndChar

StartChar: P
Encoding: 80 80 65
Width: 411
Flags: H
HStem: 219 59<103 172.594> 444 54<108.116 293.999>
VStem: 31 70<90.1294 223.07> 40 63<279.086 429.041>
LayerCount: 2
Fore
SplineSet
31 120 m 0xe0
 37 228 40 326 40 414 c 0xd0
 36 423 34 434 34 443 c 0
 34 450 36 457 38 461 c 0
 44 472 63 483 82 486 c 0
 126 493 159 500 198 500 c 0
 210 500 223 500 236 498 c 0
 293 491 368 473 368 394 c 0
 368 315 226 246 102 219 c 0
 102 180 102 141 101 102 c 0
 100 99 98 95 96 93 c 0
 91 87 84 84 75 84 c 0
 66 84 56 87 47 94 c 0
 40 100 33 112 31 120 c 0xe0
103 278 m 1
 208 298 307 365 307 401 c 0
 307 433 245 442 217 444 c 0
 212 444 207 445 202 445 c 0
 175 445 141 439 104 420 c 0
 103 389 103 358 103 326 c 0
 103 310 103 294 103 278 c 1
EndSplineSet
Validated: 1
EndChar

StartChar: Q
Encoding: 81 81 67
Width: 638
Flags: H
HStem: 40 51<183.985 369.416>
VStem: 31 55<181.549 317.927>
LayerCount: 2
Fore
SplineSet
31 270 m 0
 31 338 93 410 155 451 c 0
 218 493 304 523 390 527 c 0
 394 527 397 527 401 527 c 0
 480 527 526 487 569 422 c 0
 586 396 596 361 596 322 c 0
 596 257 568 180 501 122 c 0
 523 89 549 59 578 34 c 0
 585 29 591 19 591 11 c 0
 591 10 l 0
 590 -4 575 -15 557 -15 c 0
 556 -15 554 -15 553 -15 c 0
 544 -14 532 -8 527 -2 c 0
 500 25 472 54 444 87 c 0
 413 68 346 40 289 40 c 0
 288 40 287 40 286 40 c 0
 228 41 154 64 120 90 c 0
 63 134 31 207 31 270 c 0
142 143 m 0
 174 115 204 94 266 91 c 0
 269 91 273 91 276 91 c 0
 334 91 382 115 413 138 c 0
 391 164 370 191 351 220 c 0
 348 224 347 230 347 236 c 0
 347 242 348 247 351 252 c 0
 357 262 367 268 377 268 c 0
 381 268 384 267 388 265 c 0
 391 264 394 261 396 258 c 0
 419 223 441 195 461 173 c 0
 526 228 546 284 546 333 c 0
 546 356 541 377 535 396 c 0
 517 450 458 478 402 478 c 0
 397 478 393 477 388 477 c 0
 328 472 245 443 186 399 c 0
 128 356 86 303 86 254 c 0
 86 204 112 170 142 143 c 0
EndSplineSet
Validated: 1
EndChar

StartChar: R_R
Encoding: 65559 -1 69
Width: 910
Flags: H
HStem: 223 72<97 126.593> 437 32<106.744 242.636 553.097 665.424>
VStem: 43 60<78.6234 221.16> 477 65<71.0918 220.292> 484 56<68.2157 107.491 114.182 220.292 285.89 420.67>
LayerCount: 2
Fore
SplineSet
43 90 m 0xe0
 37 138 31 209 31 260 c 0
 31 264 31 268 31 272 c 0
 32 324 39 399 42 412 c 0
 45 425 47 462 67 465 c 0
 82 467 114 470 151 470 c 0
 162 470 173 469 184 469 c 0
 234 467 269 454 288 437 c 0
 304 423 311 407 311 390 c 0
 311 387 310 384 310 380 c 0
 307 358 287 329 265 309 c 0
 243 289 205 269 170 250 c 0
 243 209 315 165 387 117 c 0
 398 110 404 100 404 91 c 0
 404 88 403 84 401 81 c 0
 397 75 390 72 382 72 c 0
 376 72 369 74 363 78 c 0
 362 78 l 0
 279 126 200 175 127 224 c 0
 118 223 108 223 97 223 c 0
 98 184 100 150 103 121 c 0
 105 119 107 116 108 114 c 0
 109 112 110 109 110 107 c 0
 110 96 101 84 86 78 c 0
 80 75 73 74 67 74 c 0
 56 74 47 79 44 87 c 0
 44 88 43 89 43 90 c 0xe0
93 295 m 0
 120 295 144 297 170 312 c 0
 196 327 216 346 231 363 c 0
 241 375 252 390 252 403 c 0
 252 409 250 414 245 419 c 0
 229 434 203 437 176 437 c 0
 149 437 119 431 107 422 c 0
 95 413 93 369 93 295 c 0
485 351 m 0
 485 374 484 397 484 419 c 0xe8
 483 420 482 421 481 422 c 0
 478 426 476 430 476 435 c 0
 476 442 479 450 486 456 c 0
 490 459 496 463 501 464 c 0
 524 468 561 471 593 471 c 0
 605 471 615 471 625 470 c 0
 661 467 693 459 713 446 c 0
 733 433 742 412 746 392 c 0
 747 387 748 383 748 378 c 0
 748 362 741 345 719 321 c 0
 690 290 664 272 624 248 c 0
 685 201 758 149 844 92 c 0
 845 91 l 0
 859 81 867 67 867 56 c 0
 867 52 866 49 864 46 c 0
 860 40 853 37 845 37 c 0
 836 37 826 41 816 47 c 0
 553 221 l 0
 543 206 544 184 542 96 c 0
 542 86 535 74 527 70 c 0
 523 68 519 67 514 67 c 0
 502 67 489 74 482 87 c 0
 479 92 477 102 477 108 c 0
 477 157 485 229 485 351 c 0
554 285 m 0
 560 284 566 284 571 284 c 0
 593 284 606 293 630 312 c 0
 659 336 681 358 685 374 c 0
 686 376 686 378 686 381 c 0
 686 396 676 414 666 422 c 0
 656 430 632 437 611 437 c 0
 607 437 604 436 601 436 c 0
 579 433 560 428 552 421 c 0
 544 414 540 405 540 386 c 0
 540 367 540 346 544 334 c 0
 548 322 555 304 554 285 c 0
EndSplineSet
Validated: 33
Ligature2: "'liga' Standard Ligatures in Latin lookup 0 subtable" R R
EndChar

StartChar: R
Encoding: 82 82 73
Width: 456
Flags: H
VStem: 40 69<93.2883 231.342>
LayerCount: 2
Fore
SplineSet
40 96 m 0
 36 153 33 257 31 410 c 0
 29 415 29 421 29 427 c 0
 29 433 29 438 31 442 c 0
 36 453 54 468 71 473 c 0
 111 485 149 493 203 497 c 0
 213 498 223 498 232 498 c 0
 276 498 317 487 332 430 c 0
 334 421 335 414 335 406 c 0
 335 351 282 316 220 285 c 0
 379 167 l 0
 381 166 383 164 385 163 c 0
 403 148 413 129 413 113 c 0
 413 106 411 100 407 95 c 0
 401 88 393 85 383 85 c 0
 369 85 352 92 337 104 c 0
 334 107 329 111 326 114 c 0
 278 162 222 211 157 261 c 0
 140 252 122 243 105 233 c 1
 106 165 109 130 109 119 c 0
 109 110 98 98 83 91 c 0
 74 87 65 85 58 85 c 0
 50 85 43 87 41 92 c 0
 41 93 40 95 40 96 c 0
101 291 m 0
 121 294 159 309 208 337 c 0
 248 360 264 383 264 409 c 0
 264 415 263 420 262 426 c 0
 256 452 237 459 207 459 c 0
 200 459 192 459 183 458 c 0
 139 455 113 449 94 429 c 0
 96 387 98 341 101 291 c 0
EndSplineSet
Validated: 1
EndChar

StartChar: S_S
Encoding: 65563 -1 75
Width: 895
Flags: H
HStem: 69 41<501.035 553.787> 449 50<644.722 812.243>
LayerCount: 2
Fore
SplineSet
93 160 m 0
 116 139 135 124 190 124 c 0
 196 124 203 125 210 125 c 0
 281 129 326 162 331 204 c 0
 331 206 331 209 331 211 c 0
 331 249 293 278 231 300 c 0
 168 322 99 339 99 397 c 0
 99 399 99 401 99 404 c 0
 105 468 184 493 285 497 c 0
 293 498 303 492 308 483 c 0
 311 478 312 473 312 468 c 0
 312 461 309 454 303 451 c 0
 300 449 295 449 292 450 c 0
 279 452 268 453 258 453 c 0
 215 453 191 437 185 406 c 0
 184 403 184 401 184 399 c 0
 184 366 237 357 295 341 c 0
 357 324 428 294 428 208 c 0
 428 119 302 76 253 69 c 0
 244 68 233 67 221 67 c 0
 167 67 89 80 41 107 c 0
 38 109 35 113 33 116 c 0
 31 120 30 123 30 127 c 0
 30 139 39 153 53 160 c 0
 59 163 67 165 74 165 c 0
 81 165 88 163 93 160 c 0
553 107 m 0
 568 102 589 98 613 98 c 0
 633 98 655 101 677 109 c 0
 724 127 761 160 761 190 c 0
 761 223 722 260 664 273 c 0
 605 286 518 333 518 384 c 0
 518 387 518 390 519 393 c 0
 530 445 622 499 779 499 c 0
 786 499 793 499 800 499 c 0
 800 499 l 0
 807 499 813 488 813 476 c 0
 813 462 805 449 797 449 c 0
 784 450 771 451 759 451 c 0
 688 451 634 433 614 399 c 0
 609 390 606 382 606 376 c 0
 606 354 638 345 701 333 c 0
 785 317 853 245 853 186 c 0
 853 131 787 94 722 69 c 0
 690 57 655 51 621 51 c 0
 584 51 550 58 521 69 c 1
 510 72 501 81 501 88 c 0
 501 100 517 109 537 110 c 0
 542 110 550 109 554 108 c 0
 553 107 l 0
EndSplineSet
Validated: 5
Ligature2: "'liga' Standard Ligatures in Latin lookup 0 subtable" S S
EndChar

StartChar: S
Encoding: 83 83 79
Width: 465
Flags: H
VStem: 144 261<187 392>
LayerCount: 2
Fore
SplineSet
86 107 m 0
 95 106 104 106 115 106 c 0
 160 106 217 112 257 122 c 0
 304 134 342 160 342 192 c 0
 342 220 324 247 284 262 c 0
 252 274 215 288 192 307 c 0
 169 326 144 360 144 390 c 0
 144 423 182 465 210 482 c 0
 240 500 290 514 327 514 c 0
 328 514 330 514 331 514 c 0
 368 513 413 490 421 471 c 0
 422 469 422 467 422 465 c 0
 422 456 413 452 401 452 c 0
 395 452 387 453 381 455 c 0
 376 457 370 457 363 457 c 0
 337 457 296 447 266 424 c 0
 239 403 226 383 226 366 c 0
 226 358 229 351 234 345 c 0
 251 326 273 315 313 309 c 0
 352 303 405 265 405 193 c 0
 405 191 405 189 405 187 c 0
 402 111 336 72 252 52 c 0
 207 41 171 38 143 38 c 0
 118 38 99 41 86 43 c 0
 58 48 35 63 32 84 c 0
 32 86 32 88 32 90 c 0
 32 102 38 107 61 107 c 0
 68 107 76 107 86 106 c 0
 86 107 l 0
EndSplineSet
Validated: 1
EndChar

StartChar: szlig
Encoding: 223 223 81
Width: 517
Flags: H
VStem: 402 72<171.747 283.083>
LayerCount: 2
Fore
SplineSet
31 79 m 0
 41 186 64 276 118 376 c 0
 171 475 235 519 269 519 c 0
 270 519 l 0
 297 518 340 490 340 422 c 0
 340 404 337 383 330 359 c 0
 390 349 474 333 474 221 c 0
 474 113 404 44 273 44 c 0
 268 44 263 44 257 44 c 0
 249 44 241 48 239 52 c 0
 238 54 238 56 238 58 c 0
 238 70 254 86 277 97 c 0
 282 99 289 103 294 104 c 0
 327 114 402 172 402 229 c 0
 402 285 361 310 286 310 c 0
 285 310 283 310 282 310 c 0
 266 310 250 321 250 335 c 0
 250 339 251 344 254 348 c 0
 265 365 281 384 281 406 c 0
 281 410 281 413 280 417 c 0
 275 437 269 452 256 452 c 0
 251 452 245 450 239 445 c 0
 215 428 193 391 162 326 c 0
 131 261 112 197 107 127 c 0
 106 117 100 99 93 88 c 0
 80 68 61 55 48 55 c 0
 45 55 42 55 39 57 c 0
 34 60 30 71 31 80 c 0
 31 79 l 0
EndSplineSet
Validated: 1
EndChar

StartChar: T_T
Encoding: 65567 -1 82
Width: 995
Flags: H
HStem: 374 39<48.3939 106.875> 468 56<436.255 485.376>
VStem: 223 64<186.725 399> 233 63<50.4395 291.073> 715 67<194.84 408> 716 74<72.1105 330.312>
LayerCount: 2
Fore
SplineSet
233 66 m 0xd0
 228 187 225 298 223 399 c 0
 178 394 127 386 70 374 c 0
 64 374 54 376 48 380 c 0
 38 386 31 396 31 403 c 0
 31 405 32 407 33 409 c 0
 34 411 36 412 38 413 c 0
 136 440 209 459 258 470 c 0
 307 481 367 499 439 523 c 0
 440 523 442 524 443 524 c 0
 446 525 451 525 454 525 c 0
 472 525 487 515 487 499 c 0
 487 486 476 473 460 468 c 0
 287 417 l 0xe0
 289 306 292 190 296 70 c 0
 295 59 281 50 266 49 c 0
 265 49 264 49 263 49 c 0
 249 49 236 56 233 65 c 0
 233 66 l 0xd0
716 96 m 0xc4
 716 224 716 328 715 408 c 0
 650 400 591 390 537 378 c 0
 530 377 519 379 511 382 c 0
 497 388 488 399 488 408 c 0
 488 410 488 411 489 413 c 0
 491 417 496 421 501 422 c 0
 607 446 680 461 719 468 c 0
 758 475 822 491 910 516 c 0
 914 518 918 519 922 519 c 0
 934 519 945 511 950 500 c 0
 952 496 953 491 953 487 c 0
 953 476 947 465 936 460 c 0
 933 459 929 457 926 457 c 0
 869 444 821 434 782 427 c 0xc8
 785 311 788 200 790 94 c 0
 790 93 790 91 790 90 c 0
 788 77 774 69 756 69 c 0
 754 69 752 69 750 69 c 0
 732 71 717 83 716 96 c 0xc4
EndSplineSet
Validated: 1
Ligature2: "'liga' Standard Ligatures in Latin lookup 0 subtable" T T
EndChar

StartChar: T
Encoding: 84 84 86
Width: 555
Flags: H
HStem: 432 64<39.5121 198> 439 82<270 469.463>
VStem: 185 65<59.3285 304.461> 198 72<205.508 431>
LayerCount: 2
Fore
SplineSet
198 431 m 1
 178 432 156 432 134 432 c 0
 123 432 112 432 100 432 c 0
 99 432 l 0
 63 432 32 444 31 459 c 0
 31 460 l 0
 31 476 63 492 104 496 c 0x90
 133 498 170 500 215 501 c 0
 216 507 226 512 238 513 c 0
 247 514 257 511 261 507 c 0
 317 511 382 514 484 521 c 0
 496 520 509 512 512 502 c 0
 513 500 513 497 513 495 c 0
 513 482 502 469 486 464 c 0
 485 464 485 463 484 463 c 0
 436 456 347 442 270 439 c 0x50
 265 344 259 222 250 75 c 0
 250 75 l 0
 249 65 236 58 220 58 c 0
 219 58 217 58 216 58 c 0
 199 59 185 68 185 78 c 0
 185 82 195 306 198 431 c 1
EndSplineSet
Validated: 1
EndChar

StartChar: Uuml
Encoding: 220 220 90
Width: 490
Flags: H
VStem: 265 61<594.719 679.084> 322 70<283.426 461.199>
LayerCount: 2
Fore
SplineSet
39 448 m 0x40
 40 458 51 470 63 476 c 0
 71 480 78 482 85 482 c 0
 95 482 103 478 107 471 c 0
 108 468 109 463 109 460 c 0
 106 431 102 385 102 337 c 0
 102 314 103 290 105 267 c 0
 110 207 128 159 170 159 c 0
 178 159 186 161 195 164 c 0
 255 186 313 256 327 332 c 0
 328 341 329 350 329 360 c 0
 329 377 327 395 323 412 c 0
 322 415 322 420 322 423 c 0
 323 446 339 465 358 465 c 0
 359 465 359 465 360 465 c 0
 375 464 389 449 392 431 c 0
 398 380 404 336 410 301 c 0
 416 266 428 222 446 171 c 0
 447 167 448 162 448 157 c 0
 448 151 448 145 446 140 c 0
 440 122 427 109 415 109 c 0
 413 109 412 110 410 110 c 0
 405 112 399 118 397 124 c 0
 362 224 l 0
 333 170 284 128 204 108 c 0
 189 104 174 102 160 102 c 0
 103 102 63 138 44 230 c 0
 34 279 30 320 30 353 c 0
 30 397 36 428 39 449 c 0
 39 448 l 0x40
112 670 m 0
 114 688 135 701 152 701 c 0
 160 701 167 698 171 692 c 0
 181 678 187 656 187 636 c 0
 187 630 186 623 185 618 c 0
 181 602 163 590 148 590 c 0
 143 590 138 591 134 594 c 0
 120 604 111 634 111 659 c 0
 111 663 112 667 112 670 c 0
249 654 m 0
 249 655 248 657 248 658 c 0
 248 672 270 689 287 689 c 0
 292 689 297 687 301 683 c 0
 316 668 328 642 328 620 c 0
 328 615 327 610 326 606 c 0
 321 588 293 572 277 572 c 0
 270 572 266 575 265 581 c 0x80
 262 602 255 636 249 654 c 0
EndSplineSet
Validated: 1
EndChar

StartChar: U
Encoding: 85 85 92
Width: 522
Flags: H
HStem: 69 52<181.117 283.438>
VStem: 380 67<254.086 472.47> 416 62<61.2007 174.149>
LayerCount: 2
Fore
SplineSet
51 471 m 0xa0
 53 479 62 487 72 489 c 0
 75 490 77 490 80 490 c 0
 91 490 100 484 102 476 c 0
 102 474 102 471 102 469 c 0
 101 455 100 439 100 420 c 0
 100 359 107 280 121 237 c 0
 139 181 182 121 237 121 c 0
 238 121 l 0
 294 122 348 216 359 256 c 0
 370 296 379 390 380 446 c 0
 380 447 380 449 380 450 c 0
 380 463 395 474 413 474 c 0
 414 474 413 474 414 474 c 0
 432 473 448 463 448 449 c 0
 448 447 447 445 447 444 c 0xc0
 445 382 443 328 441 275 c 0
 447 216 460 149 478 97 c 0
 479 95 479 92 479 89 c 0
 479 82 477 75 474 71 c 0
 468 63 459 59 450 59 c 0
 443 59 435 61 429 66 c 0
 424 70 418 78 416 84 c 0
 405 115 396 154 392 192 c 0
 376 148 304 72 228 69 c 0
 226 69 223 69 221 69 c 0
 148 69 91 117 58 220 c 0
 40 277 31 326 31 369 c 0
 31 406 37 440 50 471 c 0
 51 471 l 0xa0
EndSplineSet
Validated: 1
EndChar

StartChar: V
Encoding: 86 86 94
Width: 506
Flags: H
LayerCount: 2
Fore
SplineSet
160 93 m 0
 138 204 98 307 40 403 c 0
 39 404 38 407 37 408 c 0
 33 416 32 424 32 431 c 0
 32 444 37 455 47 460 c 0
 50 462 53 462 57 462 c 0
 69 462 83 454 91 440 c 0
 132 375 172 290 210 184 c 0
 299 357 379 488 410 517 c 0
 412 519 415 522 418 523 c 0
 424 526 432 528 438 528 c 0
 448 528 457 524 461 516 c 0
 462 513 463 510 463 507 c 0
 463 501 461 494 457 489 c 0
 421 440 346 307 232 90 c 0
 220 68 197 53 185 52 c 0
 184 52 l 0
 172 52 163 72 160 93 c 0
EndSplineSet
Validated: 1
EndChar

StartChar: W
Encoding: 87 87 96
Width: 728
Flags: H
VStem: 32 62<415.323 473.946>
LayerCount: 2
Fore
SplineSet
35 415 m 0
 33 420 31 428 31 435 c 0
 31 437 32 440 32 442 c 0
 35 463 51 477 67 477 c 0
 68 477 70 477 71 477 c 0
 80 476 90 467 94 458 c 0
 147 329 183 231 201 164 c 0
 234 215 265 258 292 295 c 0
 302 309 320 319 333 319 c 0
 334 319 334 319 335 319 c 0
 349 318 367 302 375 285 c 0
 397 235 420 187 444 140 c 0
 502 245 558 352 611 461 c 0
 615 468 626 478 635 482 c 0
 643 486 651 488 659 488 c 0
 670 488 680 484 684 476 c 0
 685 474 685 471 685 468 c 0
 685 464 684 459 682 455 c 0
 627 353 560 220 480 55 c 0
 476 47 468 39 461 37 c 0
 460 37 458 37 457 37 c 0
 445 37 429 48 418 64 c 0
 389 109 358 164 325 231 c 0
 291 193 256 147 220 93 c 0
 218 90 214 86 211 83 c 0
 202 75 191 71 181 71 c 0
 172 71 163 74 157 81 c 0
 155 84 152 88 151 92 c 0
 118 215 79 322 36 414 c 0
 35 415 l 0
EndSplineSet
Validated: 1
EndChar

StartChar: X
Encoding: 88 88 98
Width: 483
HStem: 495 20G<84 91 411.5 420.5>
LayerCount: 2
Fore
SplineSet
52 110 m 0
 190 276 l 0
 155 335 113 399 62 470 c 0
 59 474 57 480 57 485 c 0
 57 494 62 503 70 509 c 0
 75 513 81 515 87 515 c 0
 95 515 104 511 109 504 c 0
 152 445 193 387 231 328 c 0
 284 391 333 447 378 496 c 0
 379 497 382 500 383 501 c 0
 394 510 406 515 417 515 c 0
 424 515 432 513 436 508 c 0
 439 504 440 499 440 493 c 0
 440 483 435 471 426 461 c 0
 372 402 319 340 267 275 c 0
 314 214 355 159 388 110 c 0
 389 108 392 105 393 103 c 0
 399 93 401 81 401 72 c 0
 401 61 398 52 390 48 c 0
 387 47 384 46 381 46 c 0
 370 46 356 54 346 67 c 0
 227 222 l 0
 91 69 l 0
 77 53 59 43 47 43 c 0
 43 43 40 45 37 47 c 0
 33 50 30 56 30 63 c 0
 30 76 38 92 50 107 c 0
 51 108 51 109 52 110 c 0
EndSplineSet
Validated: 1
EndChar

StartChar: Y
Encoding: 89 89 100
Width: 468
Flags: H
HStem: 431 56<32.0569 76.2213>
VStem: 173 67<62.7066 279.874> 180 66<89.0666 299>
LayerCount: 2
Fore
SplineSet
173 78 m 0xc0
 176 148 178 216 180 283 c 0
 128 360 73 418 50 431 c 0
 39 436 31 448 31 459 c 0
 31 476 48 487 65 487 c 0
 66 487 68 487 69 487 c 0
 75 486 83 483 88 480 c 0
 113 464 153 430 214 340 c 0
 373 499 l 0
 374 500 375 501 376 502 c 0
 385 510 397 514 406 514 c 0
 412 514 418 512 422 508 c 0
 425 505 426 500 426 495 c 0
 426 486 421 475 412 466 c 0
 246 299 l 0xa0
 244 222 242 151 240 86 c 0
 239 76 227 65 212 61 c 0
 208 60 203 59 199 59 c 0
 186 59 175 64 173 73 c 0
 173 74 173 77 173 78 c 0xc0
EndSplineSet
Validated: 1
EndChar

StartChar: Z
Encoding: 90 90 102
Width: 497
Flags: H
HStem: 87 56<133 305.25> 97 58<202.513 452.513> 438 53<80.1285 320>
LayerCount: 2
Fore
SplineSet
38 128 m 0xa0
 320 432 l 0
 248 435 180 437 116 438 c 0
 109 438 95 445 86 453 c 0
 75 463 68 475 68 483 c 0
 68 485 69 488 70 489 c 0
 71 490 73 491 75 491 c 0
 187 490 290 489 383 487 c 0
 400 487 416 477 419 465 c 0
 421 457 416 444 409 437 c 0
 294 318 202 220 133 143 c 0xa0
 210 145 307 149 424 155 c 0
 425 155 l 0
 437 155 449 148 453 138 c 0
 454 135 455 132 455 129 c 0
 455 117 446 105 432 100 c 0
 429 99 423 97 420 97 c 0x60
 253 92 141 88 84 87 c 0
 83 87 82 87 81 87 c 0
 60 87 31 96 31 112 c 0
 31 117 34 124 38 128 c 0xa0
EndSplineSet
Validated: 1
EndChar

StartChar: zero
Encoding: 48 48 104
Width: 497
Flags: H
LayerCount: 2
Fore
SplineSet
145 460 m 0
 186 502 232 524 282 524 c 0
 320 524 360 511 399 485 c 0
 419 493 440 508 455 522 c 0
 459 526 467 528 473 528 c 0
 475 528 476 527 477 527 c 0
 489 525 498 516 498 505 c 0
 498 504 497 502 497 501 c 0
 496 498 495 494 493 492 c 0
 476 475 446 453 425 444 c 0
 444 400 455 359 455 316 c 0
 455 293 452 268 445 244 c 0
 426 175 370 108 321 78 c 0
 289 58 243 44 199 44 c 0
 177 44 155 48 135 56 c 0
 77 80 31 141 31 224 c 0
 31 311 76 388 145 460 c 0
96 225 m 0
 96 220 95 216 95 211 c 0
 95 168 112 134 152 113 c 0
 170 104 190 99 211 99 c 0
 242 99 275 110 304 133 c 0
 352 172 388 241 393 280 c 0
 394 289 395 299 395 309 c 0
 395 343 388 383 370 422 c 0
 352 417 332 414 312 414 c 0
 275 414 243 425 238 454 c 0
 197 432 167 399 142 363 c 0
 117 327 100 274 96 225 c 0
294 470 m 0
 295 460 303 455 316 455 c 0
 322 455 329 456 336 458 c 0
 330 465 313 472 302 472 c 0
 299 472 296 471 294 470 c 0
EndSplineSet
Validated: 1
EndChar

StartChar: one
Encoding: 49 49 105
Width: 318
Flags: H
VStem: 31 245
LayerCount: 2
Fore
SplineSet
187 81 m 0
 195 196 213 323 215 428 c 0
 180 392 137 349 85 300 c 0
 81 296 71 292 62 291 c 0
 59 291 56 291 54 291 c 0
 41 291 31 295 31 301 c 0
 31 302 32 305 33 306 c 0
 90 367 144 430 196 496 c 0
 211 515 232 527 248 527 c 0
 253 527 258 526 262 524 c 0
 270 519 276 504 276 490 c 0
 276 468 258 216 248 93 c 0
 247 84 237 74 225 69 c 0
 219 66 213 65 207 65 c 0
 198 65 191 68 188 74 c 0
 187 76 187 79 187 81 c 0
EndSplineSet
Validated: 1
EndChar

StartChar: two
Encoding: 50 50 106
Width: 466
Flags: H
HStem: 58 50<265.659 412.766>
LayerCount: 2
Fore
SplineSet
67 -5 m 0
 65 -5 64 -5 62 -5 c 0
 55 -5 48 -3 43 0 c 0
 35 6 30 16 30 26 c 0
 30 34 33 43 38 50 c 0
 44 59 58 66 68 67 c 0
 152 144 226 219 258 263 c 0
 290 307 315 367 318 401 c 0
 318 403 318 406 318 408 c 0
 318 440 298 472 252 475 c 0
 249 475 247 475 244 475 c 0
 197 475 146 450 130 433 c 0
 129 424 113 416 96 414 c 0
 93 414 91 413 89 413 c 0
 73 413 59 419 58 428 c 0
 58 431 60 435 62 437 c 0
 108 486 184 526 248 526 c 0
 249 526 249 526 250 526 c 0
 308 525 384 487 384 410 c 0
 384 401 383 393 381 383 c 0
 361 288 276 188 152 68 c 0
 219 81 312 102 388 108 c 0
 395 109 406 104 413 98 c 0
 420 91 424 82 424 74 c 0
 424 70 423 66 420 63 c 0
 418 61 413 58 410 58 c 0
 307 49 148 13 66 -4 c 0
 67 -5 l 0
EndSplineSet
Validated: 1
EndChar

StartChar: three
Encoding: 51 51 107
Width: 452
Flags: H
HStem: 47 43<31.1241 130.03>
LayerCount: 2
Fore
SplineSet
50 47 m 0
 39 51 31 61 31 69 c 0
 31 82 46 90 64 90 c 0
 65 90 67 90 68 90 c 0
 71 90 75 89 78 88 c 0
 115 78 175 64 221 64 c 0
 223 64 224 64 225 64 c 0
 271 65 337 84 346 151 c 0
 347 155 347 160 347 164 c 0
 347 223 291 259 242 272 c 0
 227 276 215 285 215 293 c 0
 215 300 227 308 239 311 c 1
 268 325 323 371 328 405 c 0
 328 407 328 409 328 411 c 0
 328 442 295 469 252 482 c 0
 235 487 220 490 204 490 c 0
 177 490 151 482 128 466 c 0
 127 465 126 465 125 464 c 0
 119 461 113 459 107 459 c 0
 98 459 90 463 86 470 c 0
 84 473 84 476 84 479 c 0
 84 488 89 498 98 504 c 0
 122 521 159 533 202 533 c 0
 225 533 249 530 276 522 c 0
 352 499 384 460 384 415 c 0
 384 367 336 321 307 300 c 1
 364 266 410 225 410 167 c 0
 410 109 359 40 274 25 c 0
 252 21 229 19 207 19 c 0
 144 19 86 33 50 47 c 0
EndSplineSet
Validated: 1
EndChar

StartChar: four
Encoding: 52 52 108
Width: 448
Flags: H
HStem: 212 52<111.506 296> 225 46<356.344 392.116>
VStem: 296 57<6.65015 212 270 382.94>
LayerCount: 2
Fore
SplineSet
71 187 m 0xa0
 68 186 66 186 63 186 c 0
 51 186 39 191 34 200 c 0
 32 204 31 209 31 214 c 0
 31 221 33 228 36 233 c 0
 91 329 152 425 218 522 c 0
 222 528 234 534 244 536 c 0
 247 537 250 537 253 537 c 0
 267 537 277 532 279 523 c 0
 280 520 278 515 276 512 c 0
 96 239 l 0
 146 250 222 259 300 264 c 0xa0
 302 301 304 341 305 385 c 0
 306 393 318 402 333 405 c 0
 337 406 340 406 343 406 c 0
 355 406 366 401 367 394 c 0
 367 393 367 393 367 392 c 0
 362 344 358 303 356 270 c 0
 363 271 371 271 378 271 c 0
 382 271 388 269 392 267 c 0
 401 262 406 253 406 245 c 0
 406 242 406 239 404 236 c 0
 401 230 392 225 385 225 c 0x60
 375 224 364 224 353 223 c 0
 350 144 347 68 342 -3 c 0
 342 -4 l 0
 341 -12 331 -16 319 -16 c 0
 317 -16 315 -16 313 -16 c 0
 299 -14 288 -6 288 2 c 0
 288 23 291 44 296 212 c 1
 213 209 105 194 70 187 c 0
 71 187 l 0xa0
EndSplineSet
Validated: 1
EndChar

StartChar: five
Encoding: 53 53 109
Width: 442
Flags: H
HStem: 481 48<332.395 395.654>
VStem: 59 67<332 452.35>
LayerCount: 2
Fore
SplineSet
42 63 m 1
 37 66 31 75 31 83 c 0
 31 97 45 109 62 109 c 0
 72 109 84 103 89 96 c 0
 98 85 117 80 140 80 c 0
 147 80 153 80 160 81 c 0
 191 85 222 97 246 120 c 0
 280 152 287 194 287 212 c 0
 287 243 270 260 246 273 c 0
 229 282 200 290 169 290 c 0
 155 290 141 288 127 285 c 0
 125 273 111 261 95 260 c 0
 94 260 92 260 91 260 c 0
 74 260 60 271 59 284 c 0
 59 285 59 287 59 288 c 0
 60 329 60 369 60 410 c 0
 60 430 60 451 60 471 c 0
 60 486 66 506 82 507 c 0
 153 510 236 519 332 534 c 0
 333 534 335 534 337 534 c 0
 345 534 357 532 365 529 c 0
 385 521 400 507 400 496 c 0
 400 494 400 492 399 491 c 0
 397 486 390 482 382 481 c 0
 300 470 215 460 126 450 c 0
 126 332 l 0
 142 336 159 338 176 338 c 0
 217 338 257 327 287 308 c 0
 326 283 352 243 352 200 c 0
 352 196 351 193 351 189 c 0
 346 142 312 99 283 77 c 0
 254 55 207 35 157 32 c 0
 153 32 149 32 145 32 c 0
 100 32 60 47 42 62 c 0
 42 63 l 1
EndSplineSet
Validated: 1
EndChar

StartChar: six
Encoding: 54 54 110
Width: 444
Flags: H
LayerCount: 2
Fore
SplineSet
31 156 m 0
 37 248 63 328 108 389 c 0
 153 450 227 521 291 584 c 0
 292 585 294 588 296 589 c 0
 303 594 312 596 319 596 c 0
 328 596 335 593 340 586 c 0
 343 582 343 578 343 573 c 0
 343 564 339 555 332 548 c 0
 259 480 184 410 159 345 c 0
 179 354 212 361 247 361 c 0
 256 361 266 360 275 359 c 0
 320 354 367 335 390 277 c 0
 398 257 402 237 402 219 c 0
 402 185 389 154 366 127 c 0
 331 85 254 29 176 24 c 0
 172 24 168 24 164 24 c 0
 94 24 31 65 31 146 c 0
 31 149 31 152 31 156 c 0
118 268 m 0
 106 244 97 197 97 160 c 0
 97 158 97 156 97 154 c 0
 98 118 107 77 163 77 c 0
 167 77 171 78 175 78 c 0
 241 84 340 149 340 217 c 0
 340 272 295 309 243 309 c 0
 240 309 237 309 234 309 c 0
 193 305 144 291 118 268 c 0
EndSplineSet
Validated: 1
EndChar

StartChar: seven
Encoding: 55 55 111
Width: 489
Flags: H
HStem: 258 47<89.9288 216.65>
LayerCount: 2
Fore
SplineSet
127 6 m 0
 138 73 180 182 218 264 c 0
 189 264 153 262 108 258 c 0
 102 257 94 259 90 262 c 0
 85 266 82 272 82 278 c 0
 82 284 84 290 88 295 c 0
 93 301 103 306 110 305 c 0
 156 308 199 310 238 311 c 0
 259 348 310 417 355 470 c 0
 260 464 163 449 65 426 c 0
 64 426 63 425 62 425 c 0
 61 425 60 425 59 425 c 0
 48 425 37 438 33 455 c 0
 32 459 32 462 32 465 c 0
 32 479 38 492 48 494 c 0
 49 494 51 494 52 494 c 0
 175 507 284 517 379 524 c 0
 381 527 386 528 391 528 c 0
 399 528 411 525 421 519 c 0
 437 510 447 498 447 489 c 0
 447 487 447 486 446 485 c 0
 445 483 l 0
 411 455 328 359 302 314 c 0
 325 314 349 313 373 312 c 0
 382 312 393 303 397 293 c 0
 399 289 399 284 399 280 c 0
 399 270 395 261 387 258 c 0
 385 257 381 257 379 257 c 0
 346 260 314 263 282 264 c 0
 253 203 198 72 190 17 c 0
 189 9 177 -2 164 -6 c 0
 158 -8 152 -9 147 -9 c 0
 137 -9 128 -5 126 1 c 0
 126 2 126 5 126 6 c 0
 127 6 l 0
EndSplineSet
Validated: 1
EndChar

StartChar: eight
Encoding: 56 56 112
Width: 455
Flags: H
LayerCount: 2
Fore
SplineSet
139 292 m 0
 94 303 45 323 45 386 c 0
 45 449 97 537 175 540 c 0
 177 540 179 540 181 540 c 0
 257 540 339 488 343 428 c 0
 343 426 343 423 343 421 c 0
 343 363 296 327 266 306 c 1
 345 270 413 222 413 158 c 0
 413 101 348 50 236 25 c 0
 211 19 188 16 166 16 c 0
 89 16 37 52 32 122 c 0
 32 125 32 129 32 132 c 0
 32 215 104 268 139 292 c 0
186 321 m 0
 239 350 279 382 285 417 c 0
 286 420 286 423 286 426 c 0
 286 459 257 492 208 495 c 0
 207 495 205 495 204 495 c 0
 153 495 113 444 109 397 c 0
 109 395 109 393 109 391 c 0
 109 347 153 330 186 321 c 0
217 283 m 1
 134 224 101 175 101 132 c 0
 101 130 101 127 101 125 c 0
 104 90 133 65 185 65 c 0
 200 65 218 67 237 72 c 0
 321 93 351 138 351 163 c 0
 351 191 293 252 217 283 c 1
EndSplineSet
Validated: 1
EndChar

StartChar: nine
Encoding: 57 57 113
Width: 404
Flags: H
HStem: 9 27<73.5063 125.119> 248 50<121.506 247.589>
VStem: 31 67<321.243 452.799>
LayerCount: 2
Fore
SplineSet
89 36 m 0
 124 42 168 68 209 108 c 0
 250 148 282 202 286 274 c 0
 265 258 232 248 187 248 c 0
 185 248 182 248 180 248 c 0
 139 249 31 278 31 370 c 0
 31 450 81 517 143 528 c 0
 154 530 164 531 175 531 c 0
 226 531 273 511 300 485 c 0
 333 454 362 396 362 327 c 0
 362 258 335 183 303 132 c 0
 271 81 200 21 97 9 c 0
 96 9 96 9 95 9 c 0
 83 9 73 15 73 22 c 0
 73 28 80 34 89 36 c 0
292 360 m 0
 290 393 281 419 256 446 c 0
 233 471 198 485 172 485 c 0
 170 485 169 485 167 485 c 0
 140 483 98 449 98 385 c 0
 98 322 135 298 179 298 c 0
 180 298 181 298 182 298 c 0
 227 299 266 329 292 360 c 0
EndSplineSet
Validated: 1
EndChar

StartChar: fullStop
Encoding: 46 46 114
Width: 191
Flags: H
HStem: 28 102<45.4431 136.061>
VStem: 25 132<49.069 109.94>
LayerCount: 2
Fore
SplineSet
25 65 m 0
 25 98 56 125 87 130 c 0
 91 131 95 131 99 131 c 0
 127 131 153 116 157 94 c 0
 157 92 157 91 157 89 c 0
 157 65 130 37 101 28 c 0
 93 26 85 24 77 24 c 0
 51 24 25 37 25 65 c 0
EndSplineSet
Validated: 1
EndChar

StartChar: comma
Encoding: 44 44 115
Width: 182
Flags: H
LayerCount: 2
Fore
SplineSet
12 24 m 0
 25 48 60 124 70 150 c 0
 78 170 93 182 108 182 c 0
 112 182 116 181 120 179 c 0
 130 174 136 165 136 151 c 0
 136 141 133 128 127 114 c 0
 113 80 67 1 49 -14 c 0
 38 -23 28 -27 20 -27 c 0
 14 -27 9 -25 6 -21 c 0
 3 -17 1 -13 1 -7 c 0
 1 1 5 10 12 24 c 0
EndSplineSet
Validated: 1
EndChar

StartChar: colon
Encoding: 58 58 116
Width: 187
Flags: H
HStem: 95 123<46.1237 133.648> 306 111<47.9737 137.397>
VStem: 28 126<115.226 200.167 323.211 396.75>
LayerCount: 2
Fore
SplineSet
90 218 m 0
 91 218 92 218 93 218 c 0
 131 216 153 181 153 154 c 0
 153 151 153 147 152 144 c 0
 146 116 107 95 79 95 c 0
 52 95 25 116 25 144 c 0
 25 173 48 218 90 218 c 0
94 417 m 0
 95 417 l 0
 132 416 154 383 154 360 c 0
 154 337 126 308 88 306 c 0
 87 306 85 306 84 306 c 0
 50 306 28 329 28 352 c 0
 28 375 55 417 94 417 c 0
EndSplineSet
Validated: 1
EndChar

StartChar: semicolon
Encoding: 59 59 117
Width: 249
Flags: H
HStem: 332 107<82.7995 180.058>
VStem: 66 127<345.444 422.315> 71 78<61.0042 149.701>
LayerCount: 2
Fore
SplineSet
71 116 m 0xa0
 74 140 94 156 114 156 c 0
 115 156 115 156 116 156 c 0
 134 155 150 141 150 117 c 0
 150 114 150 110 149 107 c 0
 144 77 85 -2 67 -16 c 0
 56 -25 44 -30 33 -30 c 0
 26 -30 20 -28 15 -23 c 0
 11 -19 9 -13 9 -7 c 0
 9 3 14 14 23 22 c 0
 37 35 68 91 71 116 c 0xa0
133 439 m 0
 172 439 193 414 193 386 c 0
 193 385 193 383 193 382 c 0
 191 352 160 333 131 332 c 0
 130 332 130 332 129 332 c 0
 101 332 66 349 66 377 c 0
 66 406 90 439 133 439 c 0
EndSplineSet
Validated: 1
EndChar

StartChar: leftQuestionMark
Encoding: 191 191 118
Width: 465
Flags: H
HStem: -38 51<133.01 297.182> 589 78<222.716 309.72>
VStem: 31 64<51.6878 173.775> 216 97<593.971 660.289>
LayerCount: 2
Fore
SplineSet
241 414 m 0
 234 420 230 429 230 437 c 0
 230 439 230 441 231 443 c 0
 235 453 245 460 258 460 c 0
 263 460 268 459 273 457 c 0
 278 455 284 451 288 448 c 0
 303 432 316 410 316 382 c 0
 316 379 316 377 316 374 c 0
 313 342 287 306 254 275 c 0
 221 244 173 222 148 205 c 0
 120 186 95 151 95 115 c 0
 95 80 116 41 144 28 c 0
 168 17 190 13 214 13 c 0
 219 13 223 13 228 13 c 0
 258 15 303 25 335 67 c 0
 338 71 342 78 346 82 c 0
 362 100 383 111 399 111 c 0
 406 111 411 109 415 105 c 0
 420 100 423 93 423 85 c 0
 423 70 415 51 400 34 c 0
 399 33 l 0
 365 -10 286 -36 234 -38 c 0
 231 -38 228 -38 225 -38 c 0
 176 -38 125 -24 95 -8 c 0
 63 9 31 51 31 100 c 0
 31 147 58 194 84 217 c 0
 107 237 164 265 211 302 c 0
 241 325 258 354 258 378 c 0
 258 392 252 405 240 415 c 0
 241 414 l 0
216 606 m 0
 215 610 215 614 215 618 c 0
 215 637 224 657 251 667 c 0
 259 670 266 671 273 671 c 0
 294 671 308 659 313 643 c 0
 314 639 315 634 315 630 c 0
 315 613 304 595 279 589 c 0
 269 586 260 585 252 585 c 0
 234 585 219 592 216 606 c 0
EndSplineSet
Validated: 1
EndChar

StartChar: rightQuestionMark
Encoding: 63 63 119
Width: 422
Flags: H
HStem: 30 92<110.242 212.935> 621 45<132.082 280.247>
VStem: 104 118<38.9062 113.551> 141 71<231.655 350.171> 305 75<482.583 598.169>
LayerCount: 2
Fore
SplineSet
141 243 m 0xd8
 135 258 133 270 133 282 c 0
 133 291 134 299 136 308 c 0
 141 330 162 365 184 387 c 0
 206 409 247 446 273 469 c 0
 299 492 305 522 305 545 c 0
 305 568 297 586 281 601 c 0
 266 615 248 621 217 621 c 0
 215 621 212 621 210 621 c 0
 175 620 141 616 86 564 c 0
 81 560 71 556 64 555 c 0
 62 555 59 554 57 554 c 0
 44 554 31 560 31 571 c 0
 31 583 59 610 92 631 c 0
 129 655 164 665 216 666 c 0
 218 666 219 666 221 666 c 0
 270 666 305 652 335 631 c 0
 365 610 380 574 380 544 c 0
 380 504 349 467 327 443 c 0
 294 407 258 380 231 348 c 0
 213 326 203 302 203 283 c 0
 203 274 205 266 210 259 c 0
 211 258 212 255 212 252 c 0
 212 241 197 230 177 229 c 0
 176 229 174 229 173 229 c 0
 159 229 145 235 141 242 c 0
 141 243 l 0xd8
104 57 m 0xe8
 103 61 102 67 102 72 c 0
 102 93 114 118 148 122 c 0
 153 123 158 123 162 123 c 0
 197 123 219 106 222 87 c 0
 222 85 222 83 222 81 c 0
 222 61 209 36 181 30 c 0
 175 29 169 28 163 28 c 0
 136 28 110 40 104 57 c 0xe8
EndSplineSet
Validated: 1
EndChar

StartChar: leftExclamationMark
Encoding: 161 161 120
Width: 276
Flags: H
HStem: 569 123<168.84 242.675>
VStem: 140 120<586.861 663.504>
LayerCount: 2
Fore
SplineSet
30 41 m 0
 74 193 109 332 135 459 c 0
 135 461 136 463 137 465 c 0
 145 487 161 502 175 502 c 0
 177 502 179 502 181 501 c 0
 191 498 198 484 198 468 c 0
 198 465 197 463 197 460 c 0
 172 329 145 199 118 71 c 0
 116 60 108 41 100 29 c 0
 84 7 64 -5 48 -5 c 0
 43 -5 39 -5 35 -2 c 0
 29 2 27 12 27 22 c 0
 27 28 28 35 30 41 c 0
140 626 m 0
 147 655 182 692 214 692 c 0
 215 692 217 692 218 692 c 0
 247 689 261 662 261 636 c 0
 261 633 260 629 260 626 c 0
 256 598 233 573 199 569 c 0
 197 569 195 569 193 569 c 0
 165 569 139 593 139 618 c 0
 139 621 139 623 140 626 c 0
EndSplineSet
Validated: 1
EndChar

StartChar: rightExclamationMark
Encoding: 33 33 121
Width: 254
Flags: H
HStem: 17 124<46.1311 121.893>
VStem: 24 118<37.8794 118.73> 153 68<533.986 655.401>
LayerCount: 2
Fore
SplineSet
69 228 m 0
 104 391 132 530 153 645 c 0
 154 650 158 655 161 658 c 0
 165 662 171 663 177 663 c 0
 188 663 201 657 210 645 c 0
 217 636 222 624 222 614 c 0
 222 612 222 609 221 607 c 0
 188 496 159 385 133 274 c 0
 131 266 125 254 120 246 c 0
 107 224 90 208 79 208 c 0
 77 208 75 208 74 209 c 0
 70 211 68 220 69 228 c 0
24 62 m 0
 24 94 49 141 85 141 c 0
 86 141 86 141 87 141 c 0
 123 139 142 105 142 79 c 0
 142 77 142 76 142 74 c 0
 139 48 106 20 83 17 c 0
 81 17 79 17 76 17 c 0
 53 17 24 30 24 62 c 0
EndSplineSet
Validated: 1
EndChar

StartChar: doubleQuestionMark
Encoding: 8263 8263 122
Width: 777
Flags: H
HStem: 35 85<170.981 252.969> 41 95<480.671 573.475>
VStem: 164 83<234.851 351.111> 166 94<41.9144 112.856> 473 107<50.575 127.625> 476 66<216.262 350.651> 484 65<211.198 277.927>
LayerCount: 2
Fore
SplineSet
193 227 m 0x20
 179 241 164 265 164 290 c 0
 164 314 177 344 197 366 c 0
 218 389 245 406 272 431 c 0
 298 455 309 481 309 507 c 0
 309 528 300 546 286 555 c 0
 279 559 269 562 258 562 c 0
 246 562 233 559 217 554 c 0
 186 544 145 526 94 485 c 0
 89 481 79 477 71 476 c 0
 67 475 63 475 59 475 c 0
 43 475 31 481 31 490 c 0
 31 493 33 498 35 501 c 0
 86 548 133 585 187 600 c 0
 209 606 231 609 251 609 c 0
 280 609 307 603 324 593 c 0
 351 577 372 542 372 506 c 0
 372 503 372 500 372 497 c 0
 368 458 339 423 310 401 c 0
 281 379 253 368 236 331 c 0
 231 315 229 303 229 292 c 0
 229 270 237 254 246 238 c 0
 247 236 247 234 247 232 c 0
 246 224 235 218 221 218 c 0
 219 218 218 218 216 218 c 0
 208 219 198 223 193 227 c 0x20
166 66 m 0x90
 166 68 165 71 165 74 c 0
 165 92 174 115 199 120 c 0
 203 121 207 121 211 121 c 0
 235 121 254 105 260 83 c 0
 261 79 261 75 261 72 c 0
 261 51 244 36 221 35 c 0
 220 35 219 35 218 35 c 0
 192 35 169 49 166 66 c 0x90
484 231 m 0x02
 478 241 475 256 475 274 c 0
 475 280 475 287 476 294 c 0
 479 321 486 354 524 384 c 0
 562 414 610 441 634 459 c 0
 658 477 674 500 678 516 c 0
 678 518 679 519 679 521 c 0
 679 537 662 556 642 561 c 0
 638 562 633 562 627 562 c 0
 604 562 572 555 553 546 c 0
 530 535 505 512 491 500 c 0
 484 495 476 492 468 492 c 0
 462 492 456 494 452 498 c 0
 448 502 446 507 446 513 c 0
 446 520 449 528 453 534 c 0
 466 552 502 584 538 598 c 0
 562 607 591 612 618 612 c 0
 632 612 647 611 659 608 c 0
 695 600 724 578 733 540 c 0
 734 534 735 529 735 523 c 0
 735 490 714 457 681 433 c 0
 642 405 608 389 584 370 c 0
 560 351 545 330 542 307 c 0x04
 541 303 541 299 541 294 c 0
 541 275 546 254 549 240 c 0
 551 232 549 220 544 215 c 0
 539 209 532 207 524 207 c 0
 514 207 503 211 494 219 c 0
 491 222 486 227 484 231 c 0x02
473 82 m 0x48
 473 84 473 87 473 89 c 0
 473 119 497 136 526 136 c 0
 557 136 575 128 580 93 c 0
 581 89 581 86 581 83 c 0
 581 55 561 42 539 41 c 0
 538 41 536 41 535 41 c 0
 510 41 477 50 473 82 c 0x48
EndSplineSet
Validated: 1
EndChar

StartChar: doubleExclamationMark
Encoding: 8252 8252 123
Width: 437
Flags: H
HStem: 22 99<32.7475 99.6564 199.36 288.981>
VStem: 19 91<33.8954 107.746> 184 115<30.7837 105.185> 343 66<557.793 633.559>
LayerCount: 2
Fore
SplineSet
54 220 m 0
 93 388 126 518 153 610 c 0
 158 627 174 640 189 641 c 0
 190 641 190 641 191 641 c 0
 213 641 233 620 234 593 c 0
 234 584 232 570 228 563 c 0
 203 519 166 408 117 230 c 0
 115 223 108 212 101 206 c 0
 92 198 81 195 72 195 c 0
 66 195 61 197 57 201 c 0
 54 205 52 214 54 220 c 0
19 67 m 0
 22 89 41 121 73 121 c 0
 74 121 l 0
 101 120 111 95 111 75 c 0
 111 71 111 67 110 63 c 0
 105 42 82 24 57 22 c 0
 56 22 55 22 54 22 c 0
 33 22 19 42 19 62 c 0
 19 64 19 65 19 67 c 0
230 222 m 0
 240 323 278 452 343 608 c 0
 350 625 366 638 379 638 c 0
 380 638 381 638 382 638 c 0
 399 635 410 615 410 590 c 0
 410 586 410 582 409 577 c 0
 408 571 405 562 403 557 c 0
 350 438 315 339 298 261 c 0
 297 253 286 239 274 229 c 0
 261 218 248 212 239 212 c 0
 236 212 233 213 231 215 c 0
 230 216 230 220 230 222 c 0
184 64 m 0
 184 91 212 120 244 121 c 0
 245 121 245 121 246 121 c 0
 276 121 299 98 299 70 c 0
 299 39 272 21 244 20 c 0
 243 20 243 20 242 20 c 0
 215 20 184 38 184 64 c 0
EndSplineSet
Validated: 1
EndChar

StartChar: questionExclamationMark
Encoding: 8264 8264 124
Width: 560
Flags: H
HStem: 26 91<124.337 207.484> 35 98<407.495 508.625> 477 50<28.2505 61.537>
VStem: 28 48<476.926 514.195> 108 108<35.061 101.129> 128 73<203.721 324.219> 399 124<50.3125 122.834> 441 63<224.322 568.212> 444 66<343.506 609.832>
LayerCount: 2
Fore
SplineSet
128 208 m 0x34
 128 263 128 289 147 322 c 0
 166 355 202 397 230 424 c 0
 258 451 276 469 288 485 c 0
 296 495 303 515 303 533 c 0
 303 544 300 554 294 561 c 0
 284 572 263 577 242 577 c 0
 228 577 214 575 203 572 c 0
 176 565 134 549 76 496 c 0
 72 485 62 477 52 477 c 0
 51 477 l 0
 38 478 28 490 28 505 c 0
 28 514 32 522 36 527 c 0
 88 575 158 607 205 619 c 0
 221 623 236 625 251 625 c 0
 279 625 305 618 327 606 c 0
 358 589 369 562 369 533 c 0
 369 530 369 528 369 525 c 0
 367 493 334 456 293 410 c 0
 252 364 221 328 211 304 c 0
 203 285 200 262 200 243 c 0
 200 234 201 230 201 228 c 0
 201 219 188 206 171 200 c 0
 163 197 156 196 149 196 c 0
 139 196 131 199 129 205 c 0
 129 206 128 207 128 208 c 0x34
108 57 m 0
 108 85 132 113 165 117 c 0
 168 117 171 118 174 118 c 0
 201 118 216 102 216 78 c 0
 216 76 216 74 216 72 c 0
 213 42 192 30 169 26 c 0
 165 25 159 25 154 25 c 0
 132 25 108 33 108 57 c 0
441 238 m 0x31
 441 359 442 471 444 573 c 0
 445 578 447 585 449 590 c 0
 457 606 471 616 484 616 c 0
 488 616 492 616 495 614 c 0
 503 610 509 598 510 588 c 0x3080
 509 481 507 368 504 248 c 0
 502 239 492 228 482 224 c 0
 477 222 471 221 466 221 c 0
 455 221 446 225 442 234 c 0
 442 235 441 237 441 238 c 0x31
399 81 m 0
 399 110 416 131 452 133 c 0
 454 133 456 133 458 133 c 0
 492 133 520 118 523 93 c 0
 523 92 523 90 523 89 c 0
 523 64 498 41 468 35 c 0
 464 34 460 34 456 34 c 0
 427 34 399 52 399 81 c 0
EndSplineSet
Validated: 1
EndChar

StartChar: exclamationQuestionMark
Encoding: 8265 8265 125
Width: 598
Flags: H
HStem: 10 118<281.355 356.879> 25 107<49.1451 104.586> 585 55<336.945 453.537>
VStem: 23 97<40.4902 104.398> 115 56<489.336 622.663> 261 110<24.1855 107.99> 302 60<252.916 330.25>
LayerCount: 2
Fore
SplineSet
68 278 m 0x28
 78 401 94 506 115 595 c 0
 120 612 133 625 146 625 c 0
 147 625 149 625 150 625 c 0
 163 622 172 607 172 590 c 0
 172 587 172 583 171 580 c 0
 150 483 133 387 122 294 c 0
 121 287 114 276 106 270 c 0
 99 265 91 263 84 263 c 0
 78 263 73 265 70 269 c 0
 68 271 68 275 68 278 c 0x28
23 54 m 0
 23 78 54 126 77 132 c 0
 80 133 83 133 86 133 c 0
 105 133 120 116 120 88 c 0
 120 87 120 87 120 86 c 0
 119 52 93 29 66 25 c 0
 62 24 58 24 54 24 c 0
 29 24 23 40 23 54 c 0
302 275 m 0
 302 301 333 356 378 396 c 0
 423 436 480 463 484 501 c 0
 484 503 484 504 484 506 c 0
 484 543 447 584 404 585 c 0
 403 585 403 585 402 585 c 0
 357 585 306 545 296 529 c 0
 294 526 291 522 288 520 c 0
 283 516 277 515 271 515 c 0
 261 515 251 520 245 529 c 0
 241 535 239 541 239 548 c 0
 239 556 242 564 248 570 c 0
 272 594 344 640 408 640 c 0
 409 640 409 640 410 640 c 0
 474 639 556 584 556 530 c 0
 556 476 462 416 421 382 c 0
 382 350 361 321 361 285 c 0
 361 283 361 280 361 278 c 0
 361 277 362 276 362 274 c 0
 362 263 349 253 333 252 c 0
 332 252 332 252 331 252 c 0
 315 252 303 260 302 271 c 0x22
 302 272 302 274 302 275 c 0
320 128 m 0
 321 128 322 128 322 128 c 0
 356 128 371 95 371 69 c 0
 371 43 349 12 317 10 c 0
 315 10 314 10 312 10 c 0
 283 10 261 26 261 53 c 0
 261 82 283 127 320 128 c 0
EndSplineSet
Validated: 1
EndChar

StartChar: slash
Encoding: 47 47 126
Width: 605
Flags: H
LayerCount: 2
Fore
SplineSet
55 42 m 0
 216 226 365 405 501 579 c 0
 512 594 529 603 543 603 c 0
 549 603 554 601 559 598 c 0
 569 592 573 581 573 568 c 0
 573 557 570 546 563 535 c 0
 561 532 558 528 556 526 c 0
 109 8 l 0
 108 7 105 4 104 3 c 0
 87 -14 67 -25 52 -25 c 0
 46 -25 42 -23 38 -19 c 0
 35 -16 33 -11 33 -5 c 0
 33 8 41 26 55 42 c 0
EndSplineSet
Validated: 1
EndChar

StartChar: hyphen-minus
Encoding: 45 45 127
Width: 359
Flags: H
HStem: 257 50<31.1742 269.549> 266 48<93.1416 330.835>
VStem: 31 300
LayerCount: 2
Fore
SplineSet
53 255 m 0x60
 52 255 l 0
 49 255 46 256 44 257 c 0
 35 261 29 270 29 280 c 0
 29 283 30 287 31 290 c 0
 35 299 45 307 54 307 c 0xa0
 147 311 230 313 302 314 c 0
 303 314 l 0
 303 314 l 0
 318 314 331 303 331 290 c 0
 331 277 319 266 304 266 c 0
 223 263 139 259 53 255 c 0x60
EndSplineSet
Validated: 517
EndChar

StartChar: enDash
Encoding: 8211 8211 128
Width: 415
Flags: H
HStem: 254 54<10.9715 397.458>
LayerCount: 2
Fore
SplineSet
32 254 m 0
 25 254 16 259 11 264 c 0
 4 271 1 279 1 287 c 0
 1 293 2 298 6 302 c 0
 9 305 14 307 18 308 c 0
 124 311 231 313 373 313 c 0
 380 313 391 309 398 304 c 0
 409 296 415 285 415 275 c 0
 415 271 413 266 411 263 c 0
 408 258 400 255 393 255 c 0
 342 256 292 256 243 256 c 0
 170 256 99 255 32 254 c 0
EndSplineSet
Validated: 1
EndChar

StartChar: emDash
Encoding: 8212 8212 129
Width: 719
HStem: 252 68<3.89796 714.241>
LayerCount: 2
Fore
SplineSet
33 247 m 0
 19 247 5 258 1 273 c 0
 0 276 0 279 0 282 c 0
 0 297 9 311 23 314 c 0
 25 314 28 315 30 315 c 0
 315 317 529 319 673 320 c 0
 674 320 674 320 675 320 c 0
 699 319 718 303 718 285 c 0
 718 284 l 0
 717 267 699 253 677 252 c 0
 355 247 162 247 33 247 c 0
EndSplineSet
Validated: 1
EndChar

StartChar: ellipsis
Encoding: 8230 8230 130
Width: 516
Flags: H
HStem: 19 97<38.9954 122.772>
VStem: 25 117<29.75 96.686> 201 105<37.6289 112.567> 366 116<58.7883 126.539>
LayerCount: 2
Fore
SplineSet
25 62 m 0
 25 85 53 116 80 116 c 0
 81 116 81 116 82 116 c 0
 111 114 139 83 142 61 c 0
 142 60 142 59 142 58 c 0
 142 37 113 21 85 19 c 0
 84 19 82 19 81 19 c 0
 55 19 25 37 25 62 c 0
201 65 m 0
 201 94 223 124 252 126 c 0
 253 126 254 126 255 126 c 0
 286 126 306 93 306 71 c 0
 306 46 282 32 261 30 c 0
 259 30 257 30 255 30 c 0
 233 30 201 39 201 65 c 0
366 79 m 0
 366 81 365 83 365 85 c 0
 365 105 387 138 419 140 c 0
 420 140 422 140 423 140 c 0
 457 140 482 111 482 88 c 0
 482 65 453 52 432 50 c 0
 430 50 429 50 427 50 c 0
 405 50 371 61 366 79 c 0
EndSplineSet
Validated: 1
EndChar

StartChar: singleLower9QuotationMark
Encoding: 8218 8218 131
Width: 172
Flags: H
HStem: -40 182
VStem: 25 113<44.7827 128.97>
LayerCount: 2
Fore
SplineSet
59 26 m 0
 60 33 54 40 46 45 c 0
 38 50 25 60 25 82 c 0
 25 104 40 134 71 142 c 0
 76 143 81 144 86 144 c 0
 112 144 135 127 138 93 c 0
 138 90 138 88 138 85 c 0
 138 49 121 18 109 1 c 0
 96 -17 73 -34 57 -40 c 0
 53 -42 49 -42 46 -42 c 0
 35 -42 28 -34 28 -22 c 0
 28 -12 33 -5 41 2 c 0
 50 10 58 19 59 26 c 0
EndSplineSet
Validated: 1
EndChar

StartChar: singleUpper6QuotationMark
Encoding: 8216 8216 132
Width: 172
Flags: H
HStem: 454 217
VStem: 22 127<476.129 533.464>
LayerCount: 2
Fore
SplineSet
22 520 m 0
 22 523 22 527 22 530 c 0
 22 568 38 605 57 627 c 0
 78 651 117 669 136 671 c 0
 138 671 140 671 142 671 c 0
 154 671 159 667 159 659 c 0
 159 646 148 639 130 626 c 0
 112 613 99 596 99 576 c 0
 99 560 106 553 120 541 c 0
 134 529 149 516 149 499 c 0
 149 480 128 454 95 454 c 0
 65 454 25 479 22 520 c 0
EndSplineSet
Validated: 1
EndChar

StartChar: singleUpper9QuotationMark
Encoding: 8217 8217 133
Width: 172
Flags: H
HStem: 457 212
VStem: 22 146<576.952 647.372>
LayerCount: 2
Fore
SplineSet
75 532 m 0
 75 534 76 536 76 538 c 0
 76 551 67 560 59 565 c 0
 50 571 28 582 28 612 c 0
 28 645 59 668 98 669 c 0
 99 669 99 669 100 669 c 0
 138 669 168 644 168 594 c 0
 168 545 141 515 117 493 c 0
 93 471 66 460 51 457 c 0
 46 456 42 456 38 456 c 0
 29 456 22 458 22 465 c 0
 22 475 36 484 51 493 c 0
 66 502 72 516 75 532 c 0
EndSplineSet
Validated: 1
EndChar

StartChar: doubleLower9QuotationMark
Encoding: 8222 8222 134
Width: 347
Flags: H
VStem: 62 83<17.8154 64.9711> 204 109<47.906 139.504>
LayerCount: 2
Fore
SplineSet
47 59 m 0
 36 68 25 81 25 97 c 0
 25 113 34 134 52 147 c 0
 64 156 78 161 92 161 c 0
 99 161 105 160 111 157 c 0
 130 149 145 126 145 92 c 0
 145 61 132 23 112 3 c 0
 91 -18 71 -27 60 -32 c 0
 56 -34 51 -35 47 -35 c 0
 41 -35 35 -33 32 -26 c 0
 31 -23 30 -21 30 -19 c 0
 30 -12 36 -5 45 2 c 0
 57 11 62 16 62 29 c 0
 62 42 58 50 47 59 c 0
220 53 m 0
 212 61 204 78 204 95 c 0
 204 107 208 119 218 131 c 0
 227 142 240 154 260 154 c 0
 264 154 268 154 272 153 c 0
 299 147 313 130 313 91 c 0
 313 52 301 26 286 4 c 0
 271 -18 254 -31 234 -39 c 0
 226 -42 217 -44 210 -44 c 0
 200 -44 192 -41 192 -34 c 0
 192 -23 207 -9 216 0 c 0
 224 8 228 19 230 30 c 0
 232 41 227 46 220 53 c 0
EndSplineSet
Validated: 1
EndChar

StartChar: doubleUpper6QuotationMark
Encoding: 8220 8220 135
Width: 367
Flags: H
HStem: 439 214
VStem: 25 126<467.875 578.271> 210 85<540.109 594.888>
LayerCount: 2
Fore
SplineSet
65 603 m 0
 89 628 123 651 137 653 c 0
 140 653 143 654 146 654 c 0
 155 654 162 651 167 645 c 0
 174 637 169 630 160 624 c 0
 151 618 134 605 131 589 c 0
 130 586 130 583 130 580 c 0
 130 569 134 561 139 554 c 0
 145 546 151 535 151 518 c 0
 151 517 151 515 151 514 c 0
 150 495 139 455 99 450 c 0
 97 450 94 450 92 450 c 0
 56 450 25 482 25 510 c 0
 25 533 39 576 65 603 c 0
210 516 m 0
 210 549 220 582 240 606 c 0
 261 631 300 649 318 649 c 0
 336 649 348 643 351 632 c 0
 351 631 352 629 352 628 c 0
 352 619 343 613 330 608 c 0
 315 602 300 590 295 577 c 0
 294 575 294 572 294 570 c 0
 294 561 301 555 307 549 c 0
 314 542 330 532 333 504 c 0
 333 502 333 500 333 498 c 0
 333 471 316 442 282 439 c 0
 281 439 279 439 278 439 c 0
 247 439 210 472 210 516 c 0
EndSplineSet
Validated: 1
EndChar

StartChar: doubleUpper9QuotationMark
Encoding: 8221 8221 136
Width: 372
Flags: H
HStem: 452 35<24.1199 65.0812> 469 32<227.582 269.328>
VStem: 41 129<536.184 631.582> 231 137<564.253 647.493>
LayerCount: 2
Fore
SplineSet
68 517 m 0
 68 527 65 535 58 542 c 0
 51 549 40 563 40 582 c 0
 40 585 40 588 41 591 c 0
 45 614 64 646 99 651 c 0
 102 651 106 652 109 652 c 0
 140 652 170 631 170 582 c 0
 170 528 143 497 124 482 c 0
 105 467 59 454 47 452 c 0
 45 452 44 452 42 452 c 0
 32 452 25 456 24 465 c 0
 24 466 24 466 24 467 c 0
 24 476 30 482 44 487 c 0
 56 491 68 499 68 517 c 0
279 531 m 0
 280 533 280 535 280 537 c 0
 280 546 273 552 262 558 c 0
 250 565 231 575 231 602 c 0
 231 604 231 606 231 608 c 0
 234 639 258 663 296 665 c 0
 297 665 299 665 300 665 c 0
 327 665 368 650 368 590 c 0
 368 543 348 513 324 495 c 0
 299 477 263 471 251 469 c 0
 248 469 245 468 242 468 c 0
 234 468 226 470 226 478 c 0
 226 484 231 494 246 501 c 0x70
 263 509 275 519 279 531 c 0
EndSplineSet
Validated: 1
EndChar

StartChar: apostrophe
Encoding: 39 39 137
Width: 200
Flags: H
VStem: 26 140
LayerCount: 2
Fore
SplineSet
49 399 m 0
 65 416 81 449 90 473 c 0
 99 497 107 508 127 511 c 0
 130 511 132 512 135 512 c 0
 152 512 166 501 166 478 c 0
 166 455 148 426 128 403 c 0
 107 379 78 365 64 360 c 0
 58 358 51 356 44 356 c 0
 36 356 28 358 26 364 c 0
 25 365 25 367 25 368 c 0
 25 376 35 384 49 399 c 0
EndSplineSet
Validated: 1
EndChar

StartChar: asterisk
Encoding: 42 42 138
Width: 345
Flags: H
HStem: 281 287
VStem: 23 293
LayerCount: 2
Fore
SplineSet
88 416 m 0
 63 436 23 465 23 482 c 0
 23 486 25 493 41 493 c 0
 60 493 91 484 121 469 c 0
 136 533 146 568 169 568 c 0
 170 568 170 568 171 568 c 0
 187 567 196 552 196 520 c 0
 196 505 194 485 190 461 c 0
 246 482 278 494 296 494 c 0
 306 494 312 491 316 483 c 0
 317 480 318 478 318 475 c 0
 318 458 285 446 199 406 c 0
 210 362 227 325 227 303 c 0
 227 290 221 282 205 281 c 0
 204 281 202 281 201 281 c 0
 161 281 165 325 126 359 c 0
 104 337 77 317 53 317 c 0
 49 317 45 318 41 319 c 0
 31 322 26 328 26 338 c 0
 26 355 43 381 88 416 c 0
EndSplineSet
Validated: 1
EndChar

StartChar: percentSign
Encoding: 37 37 139
Width: 655
Flags: H
VStem: 452 161<133 193>
LayerCount: 2
Fore
SplineSet
31 410 m 0
 33 467 100 511 156 511 c 0
 168 511 180 508 190 504 c 0
 240 482 295 444 295 390 c 0
 295 382 294 373 291 364 c 0
 275 313 232 298 185 298 c 0
 170 298 154 300 139 302 c 0
 78 311 31 339 31 404 c 0
 31 406 31 408 31 410 c 0
156 341 m 0
 162 340 168 340 173 340 c 0
 207 340 230 353 230 376 c 0
 230 378 230 380 230 382 c 0
 225 413 190 451 164 457 c 0
 161 458 158 458 154 458 c 0
 127 458 88 439 88 409 c 0
 88 392 96 348 156 341 c 0
85 84 m 0
 240 215 378 348 498 482 c 0
 501 485 507 490 512 491 c 0
 515 492 517 492 520 492 c 0
 532 492 543 484 546 473 c 0
 548 466 545 455 540 449 c 0
 336 228 197 100 124 63 c 0
 121 61 114 57 110 56 c 0
 103 54 97 53 91 53 c 0
 79 53 71 58 71 65 c 0
 71 71 77 79 85 84 c 0
392 159 m 0
 391 165 391 172 391 178 c 0
 391 232 423 268 499 273 c 0
 504 273 510 274 515 274 c 0
 586 274 613 236 613 180 c 0
 613 116 575 78 504 74 c 0
 499 74 494 74 490 74 c 0
 429 74 399 99 392 159 c 0
452 163 m 0
 452 134 468 113 498 113 c 0
 499 113 499 113 500 113 c 0
 531 114 550 135 552 169 c 0
 552 171 552 172 552 174 c 0
 552 204 537 228 509 228 c 0
 507 228 506 228 504 228 c 0
 471 225 452 193 452 163 c 0
EndSplineSet
Validated: 1
EndChar

StartChar: euroSign
Encoding: 8364 8364 140
Width: 617
Flags: H
HStem: 116 41<533.13 574.657> 187 36<294.594 381.234> 301 43<391.147 420.624>
VStem: 123 62<186.675 242.461>
LayerCount: 2
Fore
SplineSet
139 129 m 0
 128 125 114 121 99 116 c 0
 93 114 82 115 75 118 c 0
 62 123 54 133 54 141 c 0
 54 142 54 143 54 144 c 0
 55 147 60 151 64 152 c 0
 83 159 104 165 125 172 c 0
 123 180 121 194 121 210 c 0
 121 220 122 231 123 243 c 0
 103 241 80 238 55 235 c 0
 45 234 35 240 32 249 c 0
 31 251 30 254 30 256 c 0
 30 265 37 274 47 278 c 0
 48 278 50 279 51 279 c 0
 81 284 108 288 132 291 c 0
 142 354 183 418 226 458 c 0
 268 497 323 525 394 525 c 0
 395 525 397 525 398 525 c 0
 471 524 518 503 531 488 c 0
 531 488 l 0
 536 482 538 475 538 468 c 0
 538 460 535 452 529 448 c 0
 526 445 521 445 516 445 c 0
 510 445 504 446 499 450 c 0
 479 467 442 482 399 482 c 0
 392 482 385 482 378 481 c 0
 326 475 260 433 214 320 c 0
 271 327 330 336 391 345 c 0
 394 345 399 345 402 344 c 0
 413 341 421 332 421 322 c 0
 421 320 421 319 421 317 c 0
 419 310 410 302 402 301 c 0
 323 288 255 278 198 270 c 0
 189 244 185 221 185 198 c 0
 185 194 185 190 185 186 c 0
 352 223 l 0
 353 223 356 223 357 223 c 0
 371 223 381 214 381 204 c 0
 381 197 375 190 367 187 c 0
 321 176 267 162 205 145 c 0
 221 119 243 98 269 90 c 0
 283 86 305 84 327 84 c 0
 346 84 365 85 380 87 c 0
 413 91 466 110 485 136 c 0
 491 145 508 155 524 157 c 0
 528 158 533 158 537 158 c 0
 558 158 575 149 575 136 c 0
 575 130 570 121 563 116 c 0
 541 98 474 63 424 50 c 0
 398 43 368 40 337 40 c 0
 308 40 279 43 255 49 c 0
 207 61 160 102 139 129 c 0
EndSplineSet
Validated: 1
EndChar

StartChar: uni0308
Encoding: 776 776 158
Width: 0
Flags: W
HStem: 559 109<-369.73 -318.505>
VStem: -388 87<575.215 650.328> -179 83<572.069 656.908> -179 57<545.051 616.318>
LayerCount: 2
Fore
SplineSet
-384 618 m 0xc0
 -379 640 -358 668 -329 668 c 0
 -328 668 -326 668 -325 668 c 0
 -307 666 -301 656 -301 642 c 0
 -301 632 -304 621 -307 609 c 0
 -314 580 -326 562 -360 559 c 0
 -362 559 -364 559 -366 559 c 0
 -383 559 -388 568 -388 583 c 0
 -388 592 -386 604 -384 618 c 0xc0
-169 636 m 0
 -165 651 -152 669 -131 669 c 0
 -128 669 -125 669 -121 668 c 0
 -102 663 -96 652 -96 638 c 0xe0
 -96 631 -98 624 -100 617 c 0
 -107 595 -113 580 -122 564 c 0xd0
 -130 550 -143 543 -155 543 c 0
 -157 543 -159 544 -161 544 c 0
 -174 547 -179 568 -179 582 c 0xe0
 -179 593 -175 617 -169 636 c 0
EndSplineSet
EndChar

StartChar: uni030A
Encoding: 778 778 159
Width: 0
Flags: W
HStem: 565 47<-292.173 -220.94> 711 51<-288.19 -219.428>
VStem: -362 64<616.891 702.041> -209 57<624.219 700.368>
LayerCount: 2
Fore
SplineSet
-361 653 m 0
 -361 656 -362 659 -362 662 c 0
 -362 715 -305 761 -256 762 c 0
 -255 762 -255 762 -254 762 c 0
 -203 762 -157 717 -152 666 c 0
 -152 663 -152 661 -152 658 c 0
 -152 610 -195 572 -246 566 c 0
 -250 566 -254 565 -258 565 c 0
 -308 565 -355 600 -361 653 c 0
-260 612 m 0
 -259 612 l 0
 -238 612 -211 635 -209 661 c 0
 -209 662 -209 663 -209 664 c 0
 -209 689 -235 711 -255 711 c 0
 -256 711 -257 711 -258 711 c 0
 -278 708 -298 685 -298 658 c 0
 -298 632 -284 613 -260 612 c 0
EndSplineSet
EndChar

StartChar: uni0338
Encoding: 824 824 160
Width: 0
Flags: W
LayerCount: 2
Fore
SplineSet
-342 135 m 1
 -355 120 -364 106 -378 91 c 0
 -456 -4 l 0
 -463 -14 -474 -19 -483 -19 c 0
 -486 -19 -488 -19 -491 -17 c 0
 -497 -13 -500 -6 -500 2 c 0
 -500 9 -498 17 -493 25 c 0
 -492 26 -491 28 -490 29 c 0
 -473 53 -450 83 -422 118 c 1
 -412 130 -392 154 -383 165 c 9
 -190 422 l 17
 -182 433 -165 453 -157 465 c 9
 -129 503 -85 563 -85 563 c 0
 -80 572 -69 577 -60 577 c 0
 -58 577 -55 577 -53 576 c 0
 -42 572 -35 561 -35 549 c 0
 -35 546 -36 542 -37 539 c 0
 -38 535 -42 529 -45 526 c 0
 -67 499 -90 469 -114 436 c 1
 -126 422 -138 406 -149 394 c 0
 -342 135 l 1
EndSplineSet
EndChar
